M48
; DRILL file {KiCad 7.0.1} date Mon May 15 15:50:31 2023
; FORMAT={-:-/ absolute / inch / decimal}
; #@! TF.CreationDate,2023-05-15T15:50:31+02:00
; #@! TF.GenerationSoftware,Kicad,Pcbnew,7.0.1
; #@! TF.FileFunction,Plated,1,2,PTH
FMAT,2
INCH
; #@! TA.AperFunction,Plated,PTH,ViaDrill
T1C0.0315
; #@! TA.AperFunction,Plated,PTH,ComponentDrill
T2C0.0315
; #@! TA.AperFunction,Plated,PTH,ComponentDrill
T3C0.0354
; #@! TA.AperFunction,Plated,PTH,ComponentDrill
T4C0.0394
; #@! TA.AperFunction,Plated,PTH,ComponentDrill
T5C0.0512
%
G90
G05
T1
X5.7Y-3.9
X5.9Y-3.9
T2
X5.8Y-3.2031
X5.8Y-3.4
X5.8Y-3.6031
X5.8Y-3.8
X6.1Y-4.35
X6.1Y-4.85
X6.3Y-4.35
X6.3Y-4.85
T3
X5.525Y-5.0
X5.625Y-5.0
X5.8Y-5.0
X5.9Y-5.0
T4
X3.9Y-4.0
X3.9Y-4.1
X3.9Y-4.2
X4.1Y-3.1
X4.1Y-3.2
X4.1Y-3.3
X4.1Y-3.4
X4.1Y-3.5
X4.1Y-3.6
X4.1Y-3.7
X4.1Y-3.8
X4.1Y-3.9
X4.1Y-4.0
X4.1Y-4.1
X4.1Y-4.2
X4.1Y-4.3
X4.1Y-4.4
X4.1Y-4.5
X4.1Y-4.6
X4.1Y-4.7
X4.1Y-4.8
X4.1Y-4.9
X4.1Y-5.0
X4.9Y-3.1
X4.9Y-3.2
X4.9Y-3.3
X4.9Y-3.4
X4.9Y-3.5
X4.9Y-3.6
X4.9Y-3.7
X4.9Y-3.8
X4.9Y-3.9
X4.9Y-4.0
X4.9Y-4.1
X4.9Y-4.2
X4.9Y-4.3
X4.9Y-4.4
X4.9Y-4.5
X4.9Y-4.6
X4.9Y-4.7
X4.9Y-4.8
X4.9Y-4.9
X4.9Y-5.0
X5.2Y-3.3
X5.2Y-3.4
X5.2Y-3.5
X5.2Y-3.6
X5.2Y-3.7
X5.2Y-3.8
X5.325Y-4.1
X5.4Y-3.2
X5.4Y-3.3
X5.4Y-3.4
X5.4Y-3.7
X5.425Y-4.1
X5.425Y-4.6
X5.425Y-4.8
X5.5Y-3.7
X5.525Y-4.1
X5.525Y-4.6
X5.525Y-4.8
X5.625Y-4.1
X5.625Y-4.6
X5.725Y-4.1
X5.725Y-4.6
X5.725Y-4.8
X5.825Y-4.1
X5.825Y-4.6
X5.825Y-4.8
X5.925Y-4.1
X5.925Y-4.6
X6.025Y-4.1
X6.2Y-3.4
X6.2Y-3.5
T5
X3.7Y-4.7
X3.8969Y-4.6016
X3.8969Y-4.7984
T0
M30
