%TF.GenerationSoftware,KiCad,Pcbnew,7.0.1*%
%TF.CreationDate,2023-05-21T14:40:44+02:00*%
%TF.ProjectId,converter,636f6e76-6572-4746-9572-2e6b69636164,rev?*%
%TF.SameCoordinates,Original*%
%TF.FileFunction,Legend,Top*%
%TF.FilePolarity,Positive*%
%FSLAX46Y46*%
G04 Gerber Fmt 4.6, Leading zero omitted, Abs format (unit mm)*
G04 Created by KiCad (PCBNEW 7.0.1) date 2023-05-21 14:40:44*
%MOMM*%
%LPD*%
G01*
G04 APERTURE LIST*
%ADD10C,0.150000*%
%ADD11C,0.120000*%
G04 APERTURE END LIST*
D10*
X158003809Y-128417619D02*
X158003809Y-129131904D01*
X158003809Y-129131904D02*
X157956190Y-129274761D01*
X157956190Y-129274761D02*
X157860952Y-129370000D01*
X157860952Y-129370000D02*
X157718095Y-129417619D01*
X157718095Y-129417619D02*
X157622857Y-129417619D01*
X158860952Y-129370000D02*
X158765714Y-129417619D01*
X158765714Y-129417619D02*
X158575238Y-129417619D01*
X158575238Y-129417619D02*
X158480000Y-129370000D01*
X158480000Y-129370000D02*
X158432381Y-129274761D01*
X158432381Y-129274761D02*
X158432381Y-128893809D01*
X158432381Y-128893809D02*
X158480000Y-128798571D01*
X158480000Y-128798571D02*
X158575238Y-128750952D01*
X158575238Y-128750952D02*
X158765714Y-128750952D01*
X158765714Y-128750952D02*
X158860952Y-128798571D01*
X158860952Y-128798571D02*
X158908571Y-128893809D01*
X158908571Y-128893809D02*
X158908571Y-128989047D01*
X158908571Y-128989047D02*
X158432381Y-129084285D01*
X159337143Y-128750952D02*
X159337143Y-129417619D01*
X159337143Y-128846190D02*
X159384762Y-128798571D01*
X159384762Y-128798571D02*
X159480000Y-128750952D01*
X159480000Y-128750952D02*
X159622857Y-128750952D01*
X159622857Y-128750952D02*
X159718095Y-128798571D01*
X159718095Y-128798571D02*
X159765714Y-128893809D01*
X159765714Y-128893809D02*
X159765714Y-129417619D01*
X160241905Y-128750952D02*
X160241905Y-129417619D01*
X160241905Y-128846190D02*
X160289524Y-128798571D01*
X160289524Y-128798571D02*
X160384762Y-128750952D01*
X160384762Y-128750952D02*
X160527619Y-128750952D01*
X160527619Y-128750952D02*
X160622857Y-128798571D01*
X160622857Y-128798571D02*
X160670476Y-128893809D01*
X160670476Y-128893809D02*
X160670476Y-129417619D01*
X161146667Y-129417619D02*
X161146667Y-128750952D01*
X161146667Y-128417619D02*
X161099048Y-128465238D01*
X161099048Y-128465238D02*
X161146667Y-128512857D01*
X161146667Y-128512857D02*
X161194286Y-128465238D01*
X161194286Y-128465238D02*
X161146667Y-128417619D01*
X161146667Y-128417619D02*
X161146667Y-128512857D01*
X162003809Y-129370000D02*
X161908571Y-129417619D01*
X161908571Y-129417619D02*
X161718095Y-129417619D01*
X161718095Y-129417619D02*
X161622857Y-129370000D01*
X161622857Y-129370000D02*
X161575238Y-129274761D01*
X161575238Y-129274761D02*
X161575238Y-128893809D01*
X161575238Y-128893809D02*
X161622857Y-128798571D01*
X161622857Y-128798571D02*
X161718095Y-128750952D01*
X161718095Y-128750952D02*
X161908571Y-128750952D01*
X161908571Y-128750952D02*
X162003809Y-128798571D01*
X162003809Y-128798571D02*
X162051428Y-128893809D01*
X162051428Y-128893809D02*
X162051428Y-128989047D01*
X162051428Y-128989047D02*
X161575238Y-129084285D01*
%TO.C,R4*%
X163022619Y-99226666D02*
X162546428Y-99559999D01*
X163022619Y-99798094D02*
X162022619Y-99798094D01*
X162022619Y-99798094D02*
X162022619Y-99417142D01*
X162022619Y-99417142D02*
X162070238Y-99321904D01*
X162070238Y-99321904D02*
X162117857Y-99274285D01*
X162117857Y-99274285D02*
X162213095Y-99226666D01*
X162213095Y-99226666D02*
X162355952Y-99226666D01*
X162355952Y-99226666D02*
X162451190Y-99274285D01*
X162451190Y-99274285D02*
X162498809Y-99321904D01*
X162498809Y-99321904D02*
X162546428Y-99417142D01*
X162546428Y-99417142D02*
X162546428Y-99798094D01*
X162355952Y-98369523D02*
X163022619Y-98369523D01*
X161975000Y-98607618D02*
X162689285Y-98845713D01*
X162689285Y-98845713D02*
X162689285Y-98226666D01*
%TO.C,R3*%
X157942619Y-99226666D02*
X157466428Y-99559999D01*
X157942619Y-99798094D02*
X156942619Y-99798094D01*
X156942619Y-99798094D02*
X156942619Y-99417142D01*
X156942619Y-99417142D02*
X156990238Y-99321904D01*
X156990238Y-99321904D02*
X157037857Y-99274285D01*
X157037857Y-99274285D02*
X157133095Y-99226666D01*
X157133095Y-99226666D02*
X157275952Y-99226666D01*
X157275952Y-99226666D02*
X157371190Y-99274285D01*
X157371190Y-99274285D02*
X157418809Y-99321904D01*
X157418809Y-99321904D02*
X157466428Y-99417142D01*
X157466428Y-99417142D02*
X157466428Y-99798094D01*
X156942619Y-98893332D02*
X156942619Y-98274285D01*
X156942619Y-98274285D02*
X157323571Y-98607618D01*
X157323571Y-98607618D02*
X157323571Y-98464761D01*
X157323571Y-98464761D02*
X157371190Y-98369523D01*
X157371190Y-98369523D02*
X157418809Y-98321904D01*
X157418809Y-98321904D02*
X157514047Y-98274285D01*
X157514047Y-98274285D02*
X157752142Y-98274285D01*
X157752142Y-98274285D02*
X157847380Y-98321904D01*
X157847380Y-98321904D02*
X157895000Y-98369523D01*
X157895000Y-98369523D02*
X157942619Y-98464761D01*
X157942619Y-98464761D02*
X157942619Y-98750475D01*
X157942619Y-98750475D02*
X157895000Y-98845713D01*
X157895000Y-98845713D02*
X157847380Y-98893332D01*
%TO.C,J5*%
X98726666Y-98292619D02*
X98726666Y-99006904D01*
X98726666Y-99006904D02*
X98679047Y-99149761D01*
X98679047Y-99149761D02*
X98583809Y-99245000D01*
X98583809Y-99245000D02*
X98440952Y-99292619D01*
X98440952Y-99292619D02*
X98345714Y-99292619D01*
X99679047Y-98292619D02*
X99202857Y-98292619D01*
X99202857Y-98292619D02*
X99155238Y-98768809D01*
X99155238Y-98768809D02*
X99202857Y-98721190D01*
X99202857Y-98721190D02*
X99298095Y-98673571D01*
X99298095Y-98673571D02*
X99536190Y-98673571D01*
X99536190Y-98673571D02*
X99631428Y-98721190D01*
X99631428Y-98721190D02*
X99679047Y-98768809D01*
X99679047Y-98768809D02*
X99726666Y-98864047D01*
X99726666Y-98864047D02*
X99726666Y-99102142D01*
X99726666Y-99102142D02*
X99679047Y-99197380D01*
X99679047Y-99197380D02*
X99631428Y-99245000D01*
X99631428Y-99245000D02*
X99536190Y-99292619D01*
X99536190Y-99292619D02*
X99298095Y-99292619D01*
X99298095Y-99292619D02*
X99202857Y-99245000D01*
X99202857Y-99245000D02*
X99155238Y-99197380D01*
%TO.C,J6*%
X131746666Y-80512619D02*
X131746666Y-81226904D01*
X131746666Y-81226904D02*
X131699047Y-81369761D01*
X131699047Y-81369761D02*
X131603809Y-81465000D01*
X131603809Y-81465000D02*
X131460952Y-81512619D01*
X131460952Y-81512619D02*
X131365714Y-81512619D01*
X132651428Y-80512619D02*
X132460952Y-80512619D01*
X132460952Y-80512619D02*
X132365714Y-80560238D01*
X132365714Y-80560238D02*
X132318095Y-80607857D01*
X132318095Y-80607857D02*
X132222857Y-80750714D01*
X132222857Y-80750714D02*
X132175238Y-80941190D01*
X132175238Y-80941190D02*
X132175238Y-81322142D01*
X132175238Y-81322142D02*
X132222857Y-81417380D01*
X132222857Y-81417380D02*
X132270476Y-81465000D01*
X132270476Y-81465000D02*
X132365714Y-81512619D01*
X132365714Y-81512619D02*
X132556190Y-81512619D01*
X132556190Y-81512619D02*
X132651428Y-81465000D01*
X132651428Y-81465000D02*
X132699047Y-81417380D01*
X132699047Y-81417380D02*
X132746666Y-81322142D01*
X132746666Y-81322142D02*
X132746666Y-81084047D01*
X132746666Y-81084047D02*
X132699047Y-80988809D01*
X132699047Y-80988809D02*
X132651428Y-80941190D01*
X132651428Y-80941190D02*
X132556190Y-80893571D01*
X132556190Y-80893571D02*
X132365714Y-80893571D01*
X132365714Y-80893571D02*
X132270476Y-80941190D01*
X132270476Y-80941190D02*
X132222857Y-80988809D01*
X132222857Y-80988809D02*
X132175238Y-81084047D01*
%TO.C,SW1*%
X137575000Y-100393332D02*
X137622619Y-100250475D01*
X137622619Y-100250475D02*
X137622619Y-100012380D01*
X137622619Y-100012380D02*
X137575000Y-99917142D01*
X137575000Y-99917142D02*
X137527380Y-99869523D01*
X137527380Y-99869523D02*
X137432142Y-99821904D01*
X137432142Y-99821904D02*
X137336904Y-99821904D01*
X137336904Y-99821904D02*
X137241666Y-99869523D01*
X137241666Y-99869523D02*
X137194047Y-99917142D01*
X137194047Y-99917142D02*
X137146428Y-100012380D01*
X137146428Y-100012380D02*
X137098809Y-100202856D01*
X137098809Y-100202856D02*
X137051190Y-100298094D01*
X137051190Y-100298094D02*
X137003571Y-100345713D01*
X137003571Y-100345713D02*
X136908333Y-100393332D01*
X136908333Y-100393332D02*
X136813095Y-100393332D01*
X136813095Y-100393332D02*
X136717857Y-100345713D01*
X136717857Y-100345713D02*
X136670238Y-100298094D01*
X136670238Y-100298094D02*
X136622619Y-100202856D01*
X136622619Y-100202856D02*
X136622619Y-99964761D01*
X136622619Y-99964761D02*
X136670238Y-99821904D01*
X136622619Y-99488570D02*
X137622619Y-99250475D01*
X137622619Y-99250475D02*
X136908333Y-99059999D01*
X136908333Y-99059999D02*
X137622619Y-98869523D01*
X137622619Y-98869523D02*
X136622619Y-98631428D01*
X137622619Y-97726666D02*
X137622619Y-98298094D01*
X137622619Y-98012380D02*
X136622619Y-98012380D01*
X136622619Y-98012380D02*
X136765476Y-98107618D01*
X136765476Y-98107618D02*
X136860714Y-98202856D01*
X136860714Y-98202856D02*
X136908333Y-98298094D01*
%TO.C,BT1*%
X156694285Y-86528809D02*
X156837142Y-86576428D01*
X156837142Y-86576428D02*
X156884761Y-86624047D01*
X156884761Y-86624047D02*
X156932380Y-86719285D01*
X156932380Y-86719285D02*
X156932380Y-86862142D01*
X156932380Y-86862142D02*
X156884761Y-86957380D01*
X156884761Y-86957380D02*
X156837142Y-87005000D01*
X156837142Y-87005000D02*
X156741904Y-87052619D01*
X156741904Y-87052619D02*
X156360952Y-87052619D01*
X156360952Y-87052619D02*
X156360952Y-86052619D01*
X156360952Y-86052619D02*
X156694285Y-86052619D01*
X156694285Y-86052619D02*
X156789523Y-86100238D01*
X156789523Y-86100238D02*
X156837142Y-86147857D01*
X156837142Y-86147857D02*
X156884761Y-86243095D01*
X156884761Y-86243095D02*
X156884761Y-86338333D01*
X156884761Y-86338333D02*
X156837142Y-86433571D01*
X156837142Y-86433571D02*
X156789523Y-86481190D01*
X156789523Y-86481190D02*
X156694285Y-86528809D01*
X156694285Y-86528809D02*
X156360952Y-86528809D01*
X157218095Y-86052619D02*
X157789523Y-86052619D01*
X157503809Y-87052619D02*
X157503809Y-86052619D01*
X158646666Y-87052619D02*
X158075238Y-87052619D01*
X158360952Y-87052619D02*
X158360952Y-86052619D01*
X158360952Y-86052619D02*
X158265714Y-86195476D01*
X158265714Y-86195476D02*
X158170476Y-86290714D01*
X158170476Y-86290714D02*
X158075238Y-86338333D01*
%TO.C,R2*%
X132542619Y-122086666D02*
X132066428Y-122419999D01*
X132542619Y-122658094D02*
X131542619Y-122658094D01*
X131542619Y-122658094D02*
X131542619Y-122277142D01*
X131542619Y-122277142D02*
X131590238Y-122181904D01*
X131590238Y-122181904D02*
X131637857Y-122134285D01*
X131637857Y-122134285D02*
X131733095Y-122086666D01*
X131733095Y-122086666D02*
X131875952Y-122086666D01*
X131875952Y-122086666D02*
X131971190Y-122134285D01*
X131971190Y-122134285D02*
X132018809Y-122181904D01*
X132018809Y-122181904D02*
X132066428Y-122277142D01*
X132066428Y-122277142D02*
X132066428Y-122658094D01*
X131637857Y-121705713D02*
X131590238Y-121658094D01*
X131590238Y-121658094D02*
X131542619Y-121562856D01*
X131542619Y-121562856D02*
X131542619Y-121324761D01*
X131542619Y-121324761D02*
X131590238Y-121229523D01*
X131590238Y-121229523D02*
X131637857Y-121181904D01*
X131637857Y-121181904D02*
X131733095Y-121134285D01*
X131733095Y-121134285D02*
X131828333Y-121134285D01*
X131828333Y-121134285D02*
X131971190Y-121181904D01*
X131971190Y-121181904D02*
X132542619Y-121753332D01*
X132542619Y-121753332D02*
X132542619Y-121134285D01*
%TO.C,C1*%
X147687380Y-94146666D02*
X147735000Y-94194285D01*
X147735000Y-94194285D02*
X147782619Y-94337142D01*
X147782619Y-94337142D02*
X147782619Y-94432380D01*
X147782619Y-94432380D02*
X147735000Y-94575237D01*
X147735000Y-94575237D02*
X147639761Y-94670475D01*
X147639761Y-94670475D02*
X147544523Y-94718094D01*
X147544523Y-94718094D02*
X147354047Y-94765713D01*
X147354047Y-94765713D02*
X147211190Y-94765713D01*
X147211190Y-94765713D02*
X147020714Y-94718094D01*
X147020714Y-94718094D02*
X146925476Y-94670475D01*
X146925476Y-94670475D02*
X146830238Y-94575237D01*
X146830238Y-94575237D02*
X146782619Y-94432380D01*
X146782619Y-94432380D02*
X146782619Y-94337142D01*
X146782619Y-94337142D02*
X146830238Y-94194285D01*
X146830238Y-94194285D02*
X146877857Y-94146666D01*
X147782619Y-93194285D02*
X147782619Y-93765713D01*
X147782619Y-93479999D02*
X146782619Y-93479999D01*
X146782619Y-93479999D02*
X146925476Y-93575237D01*
X146925476Y-93575237D02*
X147020714Y-93670475D01*
X147020714Y-93670475D02*
X147068333Y-93765713D01*
%TO.C,M2*%
X143970476Y-124922619D02*
X143970476Y-123922619D01*
X143970476Y-123922619D02*
X144303809Y-124636904D01*
X144303809Y-124636904D02*
X144637142Y-123922619D01*
X144637142Y-123922619D02*
X144637142Y-124922619D01*
X145065714Y-124017857D02*
X145113333Y-123970238D01*
X145113333Y-123970238D02*
X145208571Y-123922619D01*
X145208571Y-123922619D02*
X145446666Y-123922619D01*
X145446666Y-123922619D02*
X145541904Y-123970238D01*
X145541904Y-123970238D02*
X145589523Y-124017857D01*
X145589523Y-124017857D02*
X145637142Y-124113095D01*
X145637142Y-124113095D02*
X145637142Y-124208333D01*
X145637142Y-124208333D02*
X145589523Y-124351190D01*
X145589523Y-124351190D02*
X145018095Y-124922619D01*
X145018095Y-124922619D02*
X145637142Y-124922619D01*
%TO.C,U1*%
X136398095Y-88592619D02*
X136398095Y-89402142D01*
X136398095Y-89402142D02*
X136445714Y-89497380D01*
X136445714Y-89497380D02*
X136493333Y-89545000D01*
X136493333Y-89545000D02*
X136588571Y-89592619D01*
X136588571Y-89592619D02*
X136779047Y-89592619D01*
X136779047Y-89592619D02*
X136874285Y-89545000D01*
X136874285Y-89545000D02*
X136921904Y-89497380D01*
X136921904Y-89497380D02*
X136969523Y-89402142D01*
X136969523Y-89402142D02*
X136969523Y-88592619D01*
X137969523Y-89592619D02*
X137398095Y-89592619D01*
X137683809Y-89592619D02*
X137683809Y-88592619D01*
X137683809Y-88592619D02*
X137588571Y-88735476D01*
X137588571Y-88735476D02*
X137493333Y-88830714D01*
X137493333Y-88830714D02*
X137398095Y-88878333D01*
%TO.C,J1*%
X106346666Y-80742619D02*
X106346666Y-81456904D01*
X106346666Y-81456904D02*
X106299047Y-81599761D01*
X106299047Y-81599761D02*
X106203809Y-81695000D01*
X106203809Y-81695000D02*
X106060952Y-81742619D01*
X106060952Y-81742619D02*
X105965714Y-81742619D01*
X107346666Y-81742619D02*
X106775238Y-81742619D01*
X107060952Y-81742619D02*
X107060952Y-80742619D01*
X107060952Y-80742619D02*
X106965714Y-80885476D01*
X106965714Y-80885476D02*
X106870476Y-80980714D01*
X106870476Y-80980714D02*
X106775238Y-81028333D01*
%TO.C,C2*%
X147687380Y-84026666D02*
X147735000Y-84074285D01*
X147735000Y-84074285D02*
X147782619Y-84217142D01*
X147782619Y-84217142D02*
X147782619Y-84312380D01*
X147782619Y-84312380D02*
X147735000Y-84455237D01*
X147735000Y-84455237D02*
X147639761Y-84550475D01*
X147639761Y-84550475D02*
X147544523Y-84598094D01*
X147544523Y-84598094D02*
X147354047Y-84645713D01*
X147354047Y-84645713D02*
X147211190Y-84645713D01*
X147211190Y-84645713D02*
X147020714Y-84598094D01*
X147020714Y-84598094D02*
X146925476Y-84550475D01*
X146925476Y-84550475D02*
X146830238Y-84455237D01*
X146830238Y-84455237D02*
X146782619Y-84312380D01*
X146782619Y-84312380D02*
X146782619Y-84217142D01*
X146782619Y-84217142D02*
X146830238Y-84074285D01*
X146830238Y-84074285D02*
X146877857Y-84026666D01*
X146877857Y-83645713D02*
X146830238Y-83598094D01*
X146830238Y-83598094D02*
X146782619Y-83502856D01*
X146782619Y-83502856D02*
X146782619Y-83264761D01*
X146782619Y-83264761D02*
X146830238Y-83169523D01*
X146830238Y-83169523D02*
X146877857Y-83121904D01*
X146877857Y-83121904D02*
X146973095Y-83074285D01*
X146973095Y-83074285D02*
X147068333Y-83074285D01*
X147068333Y-83074285D02*
X147211190Y-83121904D01*
X147211190Y-83121904D02*
X147782619Y-83693332D01*
X147782619Y-83693332D02*
X147782619Y-83074285D01*
%TO.C,D1*%
X127462619Y-106783094D02*
X126462619Y-106783094D01*
X126462619Y-106783094D02*
X126462619Y-106544999D01*
X126462619Y-106544999D02*
X126510238Y-106402142D01*
X126510238Y-106402142D02*
X126605476Y-106306904D01*
X126605476Y-106306904D02*
X126700714Y-106259285D01*
X126700714Y-106259285D02*
X126891190Y-106211666D01*
X126891190Y-106211666D02*
X127034047Y-106211666D01*
X127034047Y-106211666D02*
X127224523Y-106259285D01*
X127224523Y-106259285D02*
X127319761Y-106306904D01*
X127319761Y-106306904D02*
X127415000Y-106402142D01*
X127415000Y-106402142D02*
X127462619Y-106544999D01*
X127462619Y-106544999D02*
X127462619Y-106783094D01*
X127462619Y-105259285D02*
X127462619Y-105830713D01*
X127462619Y-105544999D02*
X126462619Y-105544999D01*
X126462619Y-105544999D02*
X126605476Y-105640237D01*
X126605476Y-105640237D02*
X126700714Y-105735475D01*
X126700714Y-105735475D02*
X126748333Y-105830713D01*
X127462619Y-110456904D02*
X126462619Y-110456904D01*
X127462619Y-109885476D02*
X126891190Y-110314047D01*
X126462619Y-109885476D02*
X127034047Y-110456904D01*
%TO.C,J2*%
X121586666Y-80742619D02*
X121586666Y-81456904D01*
X121586666Y-81456904D02*
X121539047Y-81599761D01*
X121539047Y-81599761D02*
X121443809Y-81695000D01*
X121443809Y-81695000D02*
X121300952Y-81742619D01*
X121300952Y-81742619D02*
X121205714Y-81742619D01*
X122015238Y-80837857D02*
X122062857Y-80790238D01*
X122062857Y-80790238D02*
X122158095Y-80742619D01*
X122158095Y-80742619D02*
X122396190Y-80742619D01*
X122396190Y-80742619D02*
X122491428Y-80790238D01*
X122491428Y-80790238D02*
X122539047Y-80837857D01*
X122539047Y-80837857D02*
X122586666Y-80933095D01*
X122586666Y-80933095D02*
X122586666Y-81028333D01*
X122586666Y-81028333D02*
X122539047Y-81171190D01*
X122539047Y-81171190D02*
X121967619Y-81742619D01*
X121967619Y-81742619D02*
X122586666Y-81742619D01*
%TO.C,R1*%
X160482619Y-117006666D02*
X160006428Y-117339999D01*
X160482619Y-117578094D02*
X159482619Y-117578094D01*
X159482619Y-117578094D02*
X159482619Y-117197142D01*
X159482619Y-117197142D02*
X159530238Y-117101904D01*
X159530238Y-117101904D02*
X159577857Y-117054285D01*
X159577857Y-117054285D02*
X159673095Y-117006666D01*
X159673095Y-117006666D02*
X159815952Y-117006666D01*
X159815952Y-117006666D02*
X159911190Y-117054285D01*
X159911190Y-117054285D02*
X159958809Y-117101904D01*
X159958809Y-117101904D02*
X160006428Y-117197142D01*
X160006428Y-117197142D02*
X160006428Y-117578094D01*
X160482619Y-116054285D02*
X160482619Y-116625713D01*
X160482619Y-116339999D02*
X159482619Y-116339999D01*
X159482619Y-116339999D02*
X159625476Y-116435237D01*
X159625476Y-116435237D02*
X159720714Y-116530475D01*
X159720714Y-116530475D02*
X159768333Y-116625713D01*
%TO.C,J3*%
X131947619Y-104473333D02*
X132661904Y-104473333D01*
X132661904Y-104473333D02*
X132804761Y-104520952D01*
X132804761Y-104520952D02*
X132900000Y-104616190D01*
X132900000Y-104616190D02*
X132947619Y-104759047D01*
X132947619Y-104759047D02*
X132947619Y-104854285D01*
X131947619Y-104092380D02*
X131947619Y-103473333D01*
X131947619Y-103473333D02*
X132328571Y-103806666D01*
X132328571Y-103806666D02*
X132328571Y-103663809D01*
X132328571Y-103663809D02*
X132376190Y-103568571D01*
X132376190Y-103568571D02*
X132423809Y-103520952D01*
X132423809Y-103520952D02*
X132519047Y-103473333D01*
X132519047Y-103473333D02*
X132757142Y-103473333D01*
X132757142Y-103473333D02*
X132852380Y-103520952D01*
X132852380Y-103520952D02*
X132900000Y-103568571D01*
X132900000Y-103568571D02*
X132947619Y-103663809D01*
X132947619Y-103663809D02*
X132947619Y-103949523D01*
X132947619Y-103949523D02*
X132900000Y-104044761D01*
X132900000Y-104044761D02*
X132852380Y-104092380D01*
%TO.C,RV1*%
X98384761Y-125992619D02*
X98051428Y-125516428D01*
X97813333Y-125992619D02*
X97813333Y-124992619D01*
X97813333Y-124992619D02*
X98194285Y-124992619D01*
X98194285Y-124992619D02*
X98289523Y-125040238D01*
X98289523Y-125040238D02*
X98337142Y-125087857D01*
X98337142Y-125087857D02*
X98384761Y-125183095D01*
X98384761Y-125183095D02*
X98384761Y-125325952D01*
X98384761Y-125325952D02*
X98337142Y-125421190D01*
X98337142Y-125421190D02*
X98289523Y-125468809D01*
X98289523Y-125468809D02*
X98194285Y-125516428D01*
X98194285Y-125516428D02*
X97813333Y-125516428D01*
X98670476Y-124992619D02*
X99003809Y-125992619D01*
X99003809Y-125992619D02*
X99337142Y-124992619D01*
X100194285Y-125992619D02*
X99622857Y-125992619D01*
X99908571Y-125992619D02*
X99908571Y-124992619D01*
X99908571Y-124992619D02*
X99813333Y-125135476D01*
X99813333Y-125135476D02*
X99718095Y-125230714D01*
X99718095Y-125230714D02*
X99622857Y-125278333D01*
%TO.C,J4*%
X134487619Y-117173333D02*
X135201904Y-117173333D01*
X135201904Y-117173333D02*
X135344761Y-117220952D01*
X135344761Y-117220952D02*
X135440000Y-117316190D01*
X135440000Y-117316190D02*
X135487619Y-117459047D01*
X135487619Y-117459047D02*
X135487619Y-117554285D01*
X134820952Y-116268571D02*
X135487619Y-116268571D01*
X134440000Y-116506666D02*
X135154285Y-116744761D01*
X135154285Y-116744761D02*
X135154285Y-116125714D01*
%TO.C,M1*%
X136350476Y-124922619D02*
X136350476Y-123922619D01*
X136350476Y-123922619D02*
X136683809Y-124636904D01*
X136683809Y-124636904D02*
X137017142Y-123922619D01*
X137017142Y-123922619D02*
X137017142Y-124922619D01*
X138017142Y-124922619D02*
X137445714Y-124922619D01*
X137731428Y-124922619D02*
X137731428Y-123922619D01*
X137731428Y-123922619D02*
X137636190Y-124065476D01*
X137636190Y-124065476D02*
X137540952Y-124160714D01*
X137540952Y-124160714D02*
X137445714Y-124208333D01*
%TO.C,D2*%
X152862619Y-115038094D02*
X151862619Y-115038094D01*
X151862619Y-115038094D02*
X151862619Y-114799999D01*
X151862619Y-114799999D02*
X151910238Y-114657142D01*
X151910238Y-114657142D02*
X152005476Y-114561904D01*
X152005476Y-114561904D02*
X152100714Y-114514285D01*
X152100714Y-114514285D02*
X152291190Y-114466666D01*
X152291190Y-114466666D02*
X152434047Y-114466666D01*
X152434047Y-114466666D02*
X152624523Y-114514285D01*
X152624523Y-114514285D02*
X152719761Y-114561904D01*
X152719761Y-114561904D02*
X152815000Y-114657142D01*
X152815000Y-114657142D02*
X152862619Y-114799999D01*
X152862619Y-114799999D02*
X152862619Y-115038094D01*
X151957857Y-114085713D02*
X151910238Y-114038094D01*
X151910238Y-114038094D02*
X151862619Y-113942856D01*
X151862619Y-113942856D02*
X151862619Y-113704761D01*
X151862619Y-113704761D02*
X151910238Y-113609523D01*
X151910238Y-113609523D02*
X151957857Y-113561904D01*
X151957857Y-113561904D02*
X152053095Y-113514285D01*
X152053095Y-113514285D02*
X152148333Y-113514285D01*
X152148333Y-113514285D02*
X152291190Y-113561904D01*
X152291190Y-113561904D02*
X152862619Y-114133332D01*
X152862619Y-114133332D02*
X152862619Y-113514285D01*
X152576904Y-119618094D02*
X152576904Y-119141904D01*
X152862619Y-119713332D02*
X151862619Y-119379999D01*
X151862619Y-119379999D02*
X152862619Y-119046666D01*
D11*
%TO.C,R4*%
X160510000Y-103680000D02*
X163950000Y-103680000D01*
X162230000Y-104370000D02*
X162230000Y-103680000D01*
X162230000Y-93750000D02*
X162230000Y-94440000D01*
X163950000Y-94440000D02*
X160510000Y-94440000D01*
X163950000Y-103680000D02*
X163950000Y-94440000D01*
X160510000Y-94440000D02*
X160510000Y-103680000D01*
%TO.C,R3*%
X155760000Y-103680000D02*
X159200000Y-103680000D01*
X157480000Y-104370000D02*
X157480000Y-103680000D01*
X157480000Y-93750000D02*
X157480000Y-94440000D01*
X159200000Y-94440000D02*
X155760000Y-94440000D01*
X159200000Y-103680000D02*
X159200000Y-94440000D01*
X155760000Y-94440000D02*
X155760000Y-103680000D01*
%TO.C,J5*%
X97730000Y-102870000D02*
X97730000Y-108010000D01*
X97730000Y-102870000D02*
X100390000Y-102870000D01*
X97730000Y-108010000D02*
X100390000Y-108010000D01*
X99060000Y-100270000D02*
X100390000Y-100270000D01*
X100390000Y-100270000D02*
X100390000Y-101600000D01*
X100390000Y-102870000D02*
X100390000Y-108010000D01*
%TO.C,J6*%
X130750000Y-85090000D02*
X130750000Y-97850000D01*
X130750000Y-85090000D02*
X133410000Y-85090000D01*
X130750000Y-97850000D02*
X133410000Y-97850000D01*
X132080000Y-82490000D02*
X133410000Y-82490000D01*
X133410000Y-82490000D02*
X133410000Y-83820000D01*
X133410000Y-85090000D02*
X133410000Y-97850000D01*
%TO.C,SW1*%
X138430000Y-92650000D02*
X135830000Y-92650000D01*
X138430000Y-92650000D02*
X138430000Y-95310000D01*
X135830000Y-92650000D02*
X135830000Y-95310000D01*
X141030000Y-93980000D02*
X141030000Y-95310000D01*
X141030000Y-95310000D02*
X139700000Y-95310000D01*
X138430000Y-95310000D02*
X135830000Y-95310000D01*
%TO.C,BT1*%
X158810000Y-82550000D02*
X158810000Y-79950000D01*
X158810000Y-82550000D02*
X156150000Y-82550000D01*
X158810000Y-79950000D02*
X156150000Y-79950000D01*
X157480000Y-85150000D02*
X156150000Y-85150000D01*
X156150000Y-85150000D02*
X156150000Y-83820000D01*
X156150000Y-82550000D02*
X156150000Y-79950000D01*
%TO.C,R2*%
X132080000Y-116610000D02*
X132080000Y-117300000D01*
X133800000Y-117300000D02*
X130360000Y-117300000D01*
X130360000Y-117300000D02*
X130360000Y-126540000D01*
X133800000Y-126540000D02*
X133800000Y-117300000D01*
X130360000Y-126540000D02*
X133800000Y-126540000D01*
X132080000Y-127230000D02*
X132080000Y-126540000D01*
%TO.C,C1*%
X142950000Y-97740000D02*
X151690000Y-97740000D01*
X142950000Y-97740000D02*
X142950000Y-90300000D01*
X151690000Y-97740000D02*
X151690000Y-90300000D01*
X142950000Y-90300000D02*
X151690000Y-90300000D01*
%TO.C,M2*%
X146685000Y-123250000D02*
X149285000Y-123250000D01*
X146685000Y-123250000D02*
X146685000Y-120590000D01*
X149285000Y-123250000D02*
X149285000Y-120590000D01*
X144085000Y-121920000D02*
X144085000Y-120590000D01*
X144085000Y-120590000D02*
X145415000Y-120590000D01*
X146685000Y-120590000D02*
X149285000Y-120590000D01*
%TO.C,U1*%
X138490000Y-85090000D02*
X138490000Y-79950000D01*
X138490000Y-85090000D02*
X135830000Y-85090000D01*
X138490000Y-79950000D02*
X135830000Y-79950000D01*
X137160000Y-87690000D02*
X135830000Y-87690000D01*
X135830000Y-87690000D02*
X135830000Y-86360000D01*
X135830000Y-85090000D02*
X135830000Y-79950000D01*
%TO.C,J1*%
X102810000Y-80010000D02*
X102810000Y-128330000D01*
X102810000Y-80010000D02*
X105470000Y-80010000D01*
X102810000Y-128330000D02*
X105470000Y-128330000D01*
X104140000Y-77410000D02*
X105470000Y-77410000D01*
X105470000Y-77410000D02*
X105470000Y-78740000D01*
X105470000Y-80010000D02*
X105470000Y-128330000D01*
%TO.C,C2*%
X151690000Y-80140000D02*
X142950000Y-80140000D01*
X151690000Y-80140000D02*
X151690000Y-87580000D01*
X142950000Y-80140000D02*
X142950000Y-87580000D01*
X151690000Y-87580000D02*
X142950000Y-87580000D01*
%TO.C,D1*%
X130508866Y-107733850D02*
G75*
G03*
X128640000Y-107793239I-968866J1053850D01*
G01*
%TO.C,J2*%
X123130000Y-80010000D02*
X123130000Y-128330000D01*
X123130000Y-80010000D02*
X125790000Y-80010000D01*
X123130000Y-128330000D02*
X125790000Y-128330000D01*
X124460000Y-77410000D02*
X125790000Y-77410000D01*
X125790000Y-77410000D02*
X125790000Y-78740000D01*
X125790000Y-80010000D02*
X125790000Y-128330000D01*
%TO.C,R1*%
X160020000Y-122150000D02*
X160020000Y-121460000D01*
X158300000Y-121460000D02*
X161740000Y-121460000D01*
X161740000Y-121460000D02*
X161740000Y-112220000D01*
X158300000Y-112220000D02*
X158300000Y-121460000D01*
X161740000Y-112220000D02*
X158300000Y-112220000D01*
X160020000Y-111530000D02*
X160020000Y-112220000D01*
%TO.C,J3*%
X136525000Y-105470000D02*
X154365000Y-105470000D01*
X136525000Y-105470000D02*
X136525000Y-102810000D01*
X154365000Y-105470000D02*
X154365000Y-102810000D01*
X133925000Y-104140000D02*
X133925000Y-102810000D01*
X133925000Y-102810000D02*
X135255000Y-102810000D01*
X136525000Y-102810000D02*
X154365000Y-102810000D01*
%TO.C,RV1*%
X99101000Y-124401000D02*
X99101000Y-123306000D01*
X99101000Y-124401000D02*
X94060000Y-124401000D01*
X99101000Y-120454000D02*
X99101000Y-118305000D01*
X99101000Y-120454000D02*
X99101000Y-118305000D01*
X99101000Y-115455000D02*
X99101000Y-114360000D01*
X99101000Y-114360000D02*
X94060000Y-114360000D01*
X97743000Y-121000000D02*
X94060000Y-121000000D01*
X97743000Y-117760000D02*
X94060000Y-117760000D01*
X94060000Y-124401000D02*
X94060000Y-120805000D01*
X94060000Y-121000000D02*
X94060000Y-120805000D01*
X94060000Y-117955000D02*
X94060000Y-117760000D01*
X94060000Y-117955000D02*
X94060000Y-114360000D01*
%TO.C,J4*%
X139065000Y-118170000D02*
X151825000Y-118170000D01*
X139065000Y-118170000D02*
X139065000Y-115510000D01*
X151825000Y-118170000D02*
X151825000Y-115510000D01*
X136465000Y-116840000D02*
X136465000Y-115510000D01*
X136465000Y-115510000D02*
X137795000Y-115510000D01*
X139065000Y-115510000D02*
X151825000Y-115510000D01*
%TO.C,M1*%
X139065000Y-123250000D02*
X141665000Y-123250000D01*
X139065000Y-123250000D02*
X139065000Y-120590000D01*
X141665000Y-123250000D02*
X141665000Y-120590000D01*
X136465000Y-121920000D02*
X136465000Y-120590000D01*
X136465000Y-120590000D02*
X137795000Y-120590000D01*
X139065000Y-120590000D02*
X141665000Y-120590000D01*
%TO.C,D2*%
X154040000Y-115726761D02*
G75*
G03*
X155908866Y-115786150I900000J-1113239D01*
G01*
%TD*%
M02*
