%TF.GenerationSoftware,KiCad,Pcbnew,7.0.1*%
%TF.CreationDate,2023-05-21T14:40:44+02:00*%
%TF.ProjectId,converter,636f6e76-6572-4746-9572-2e6b69636164,rev?*%
%TF.SameCoordinates,Original*%
%TF.FileFunction,Copper,L2,Bot*%
%TF.FilePolarity,Positive*%
%FSLAX46Y46*%
G04 Gerber Fmt 4.6, Leading zero omitted, Abs format (unit mm)*
G04 Created by KiCad (PCBNEW 7.0.1) date 2023-05-21 14:40:44*
%MOMM*%
%LPD*%
G01*
G04 APERTURE LIST*
%TA.AperFunction,ComponentPad*%
%ADD10C,1.600000*%
%TD*%
%TA.AperFunction,ComponentPad*%
%ADD11O,1.600000X1.600000*%
%TD*%
%TA.AperFunction,ComponentPad*%
%ADD12R,1.700000X1.700000*%
%TD*%
%TA.AperFunction,ComponentPad*%
%ADD13O,1.700000X1.700000*%
%TD*%
%TA.AperFunction,ComponentPad*%
%ADD14R,1.800000X1.800000*%
%TD*%
%TA.AperFunction,ComponentPad*%
%ADD15O,1.800000X1.800000*%
%TD*%
%TA.AperFunction,ComponentPad*%
%ADD16C,2.340000*%
%TD*%
G04 APERTURE END LIST*
D10*
%TO.P,R4,1*%
%TO.N,PA2*%
X162230000Y-105410000D03*
D11*
%TO.P,R4,2*%
%TO.N,GND*%
X162230000Y-92710000D03*
%TD*%
D10*
%TO.P,R3,1*%
%TO.N,9 V*%
X157480000Y-105410000D03*
D11*
%TO.P,R3,2*%
%TO.N,PA2*%
X157480000Y-92710000D03*
%TD*%
D12*
%TO.P,J5,1,Pin_1*%
%TO.N,GND*%
X99060000Y-101600000D03*
D13*
%TO.P,J5,2,Pin_2*%
%TO.N,PC13*%
X99060000Y-104140000D03*
%TO.P,J5,3,Pin_3*%
%TO.N,PC15*%
X99060000Y-106680000D03*
%TD*%
D12*
%TO.P,J6,1,Pin_1*%
%TO.N,3 V*%
X132080000Y-83820000D03*
D13*
%TO.P,J6,2,Pin_2*%
%TO.N,PB15*%
X132080000Y-86360000D03*
%TO.P,J6,3,Pin_3*%
%TO.N,PB14*%
X132080000Y-88900000D03*
%TO.P,J6,4,Pin_4*%
%TO.N,PB13*%
X132080000Y-91440000D03*
%TO.P,J6,5,Pin_5*%
%TO.N,PB2*%
X132080000Y-93980000D03*
%TO.P,J6,6,Pin_6*%
%TO.N,PB1*%
X132080000Y-96520000D03*
%TD*%
D12*
%TO.P,SW1,1*%
%TO.N,9 V*%
X139700000Y-93980000D03*
D13*
%TO.P,SW1,2*%
%TO.N,Net-(U1-IN)*%
X137160000Y-93980000D03*
%TD*%
D12*
%TO.P,BT1,1,+*%
%TO.N,9 V*%
X157480000Y-83820000D03*
D13*
%TO.P,BT1,2,-*%
%TO.N,GND*%
X157480000Y-81280000D03*
%TD*%
D10*
%TO.P,R2,1*%
%TO.N,Net-(D1-K)*%
X132080000Y-115570000D03*
D11*
%TO.P,R2,2*%
%TO.N,GND*%
X132080000Y-128270000D03*
%TD*%
D10*
%TO.P,C1,1*%
%TO.N,GND*%
X147320000Y-96520000D03*
%TO.P,C1,2*%
%TO.N,Net-(U1-IN)*%
X147320000Y-91520000D03*
%TD*%
D12*
%TO.P,M2,1,+*%
%TO.N,MotB0*%
X145415000Y-121920000D03*
D13*
%TO.P,M2,2,-*%
%TO.N,MotB1*%
X147955000Y-121920000D03*
%TD*%
D12*
%TO.P,U1,1,IN*%
%TO.N,Net-(U1-IN)*%
X137160000Y-86360000D03*
D13*
%TO.P,U1,2,GND*%
%TO.N,GND*%
X137160000Y-83820000D03*
%TO.P,U1,3,OUT*%
%TO.N,5 V*%
X137160000Y-81280000D03*
%TD*%
D12*
%TO.P,J1,1,Pin_1*%
%TO.N,GND*%
X104140000Y-78740000D03*
D13*
%TO.P,J1,2,Pin_2*%
%TO.N,unconnected-(J1-Pin_2-Pad2)*%
X104140000Y-81280000D03*
%TO.P,J1,3,Pin_3*%
%TO.N,unconnected-(J1-Pin_3-Pad3)*%
X104140000Y-83820000D03*
%TO.P,J1,4,Pin_4*%
%TO.N,unconnected-(J1-Pin_4-Pad4)*%
X104140000Y-86360000D03*
%TO.P,J1,5,Pin_5*%
%TO.N,unconnected-(J1-Pin_5-Pad5)*%
X104140000Y-88900000D03*
%TO.P,J1,6,Pin_6*%
%TO.N,unconnected-(J1-Pin_6-Pad6)*%
X104140000Y-91440000D03*
%TO.P,J1,7,Pin_7*%
%TO.N,unconnected-(J1-Pin_7-Pad7)*%
X104140000Y-93980000D03*
%TO.P,J1,8,Pin_8*%
%TO.N,unconnected-(J1-Pin_8-Pad8)*%
X104140000Y-96520000D03*
%TO.P,J1,9,Pin_9*%
%TO.N,unconnected-(J1-Pin_9-Pad9)*%
X104140000Y-99060000D03*
%TO.P,J1,10,Pin_10*%
%TO.N,unconnected-(J1-Pin_10-Pad10)*%
X104140000Y-101600000D03*
%TO.P,J1,11,Pin_11*%
%TO.N,PC13*%
X104140000Y-104140000D03*
%TO.P,J1,12,Pin_12*%
%TO.N,unconnected-(J1-Pin_12-Pad12)*%
X104140000Y-106680000D03*
%TO.P,J1,13,Pin_13*%
%TO.N,PC15*%
X104140000Y-109220000D03*
%TO.P,J1,14,Pin_14*%
%TO.N,unconnected-(J1-Pin_14-Pad14)*%
X104140000Y-111760000D03*
%TO.P,J1,15,Pin_15*%
%TO.N,unconnected-(J1-Pin_15-Pad15)*%
X104140000Y-114300000D03*
%TO.P,J1,16,Pin_16*%
%TO.N,unconnected-(J1-Pin_16-Pad16)*%
X104140000Y-116840000D03*
%TO.P,J1,17,Pin_17*%
%TO.N,unconnected-(J1-Pin_17-Pad17)*%
X104140000Y-119380000D03*
%TO.P,J1,18,Pin_18*%
%TO.N,unconnected-(J1-Pin_18-Pad18)*%
X104140000Y-121920000D03*
%TO.P,J1,19,Pin_19*%
%TO.N,unconnected-(J1-Pin_19-Pad19)*%
X104140000Y-124460000D03*
%TO.P,J1,20,Pin_20*%
%TO.N,unconnected-(J1-Pin_20-Pad20)*%
X104140000Y-127000000D03*
%TD*%
D10*
%TO.P,C2,1*%
%TO.N,5 V*%
X147320000Y-81360000D03*
%TO.P,C2,2*%
%TO.N,GND*%
X147320000Y-86360000D03*
%TD*%
D14*
%TO.P,D1,1,K*%
%TO.N,Net-(D1-K)*%
X129540000Y-109220000D03*
D15*
%TO.P,D1,2,A*%
%TO.N,PA1*%
X129540000Y-106680000D03*
%TD*%
D12*
%TO.P,J2,1,Pin_1*%
%TO.N,5 V*%
X124460000Y-78740000D03*
D13*
%TO.P,J2,2,Pin_2*%
%TO.N,3 V*%
X124460000Y-81280000D03*
%TO.P,J2,3,Pin_3*%
%TO.N,PB15*%
X124460000Y-83820000D03*
%TO.P,J2,4,Pin_4*%
%TO.N,PB14*%
X124460000Y-86360000D03*
%TO.P,J2,5,Pin_5*%
%TO.N,PB13*%
X124460000Y-88900000D03*
%TO.P,J2,6,Pin_6*%
%TO.N,unconnected-(J2-Pin_6-Pad6)*%
X124460000Y-91440000D03*
%TO.P,J2,7,Pin_7*%
%TO.N,unconnected-(J2-Pin_7-Pad7)*%
X124460000Y-93980000D03*
%TO.P,J2,8,Pin_8*%
%TO.N,unconnected-(J2-Pin_8-Pad8)*%
X124460000Y-96520000D03*
%TO.P,J2,9,Pin_9*%
%TO.N,PB2*%
X124460000Y-99060000D03*
%TO.P,J2,10,Pin_10*%
%TO.N,PB1*%
X124460000Y-101600000D03*
%TO.P,J2,11,Pin_11*%
%TO.N,unconnected-(J2-Pin_11-Pad11)*%
X124460000Y-104140000D03*
%TO.P,J2,12,Pin_12*%
%TO.N,unconnected-(J2-Pin_12-Pad12)*%
X124460000Y-106680000D03*
%TO.P,J2,13,Pin_13*%
%TO.N,unconnected-(J2-Pin_13-Pad13)*%
X124460000Y-109220000D03*
%TO.P,J2,14,Pin_14*%
%TO.N,unconnected-(J2-Pin_14-Pad14)*%
X124460000Y-111760000D03*
%TO.P,J2,15,Pin_15*%
%TO.N,unconnected-(J2-Pin_15-Pad15)*%
X124460000Y-114300000D03*
%TO.P,J2,16,Pin_16*%
%TO.N,PA3*%
X124460000Y-116840000D03*
%TO.P,J2,17,Pin_17*%
%TO.N,PA2*%
X124460000Y-119380000D03*
%TO.P,J2,18,Pin_18*%
%TO.N,PA1*%
X124460000Y-121920000D03*
%TO.P,J2,19,Pin_19*%
%TO.N,PA0*%
X124460000Y-124460000D03*
%TO.P,J2,20,Pin_20*%
%TO.N,unconnected-(J2-Pin_20-Pad20)*%
X124460000Y-127000000D03*
%TD*%
D10*
%TO.P,R1,1*%
%TO.N,Net-(D2-K)*%
X160020000Y-123190000D03*
D11*
%TO.P,R1,2*%
%TO.N,GND*%
X160020000Y-110490000D03*
%TD*%
D12*
%TO.P,J3,1,Pin_1*%
%TO.N,PA1*%
X135255000Y-104140000D03*
D13*
%TO.P,J3,2,Pin_2*%
%TO.N,PA0*%
X137795000Y-104140000D03*
%TO.P,J3,3,Pin_3*%
%TO.N,9 V*%
X140335000Y-104140000D03*
%TO.P,J3,4,Pin_4*%
%TO.N,PA0*%
X142875000Y-104140000D03*
%TO.P,J3,5,Pin_5*%
%TO.N,PA1*%
X145415000Y-104140000D03*
%TO.P,J3,6,Pin_6*%
%TO.N,unconnected-(J3-Pin_6-Pad6)*%
X147955000Y-104140000D03*
%TO.P,J3,7,Pin_7*%
%TO.N,GND*%
X150495000Y-104140000D03*
%TO.P,J3,8,Pin_8*%
%TO.N,9 V*%
X153035000Y-104140000D03*
%TD*%
D16*
%TO.P,RV1,1,1*%
%TO.N,3 V*%
X98980000Y-121880000D03*
%TO.P,RV1,2,2*%
%TO.N,PA3*%
X93980000Y-119380000D03*
%TO.P,RV1,3,3*%
%TO.N,GND*%
X98980000Y-116880000D03*
%TD*%
D12*
%TO.P,J4,1,Pin_1*%
%TO.N,MotA0*%
X137795000Y-116840000D03*
D13*
%TO.P,J4,2,Pin_2*%
%TO.N,MotA1*%
X140335000Y-116840000D03*
%TO.P,J4,3,Pin_3*%
%TO.N,MotB0*%
X142875000Y-116840000D03*
%TO.P,J4,4,Pin_4*%
%TO.N,MotB1*%
X145415000Y-116840000D03*
%TO.P,J4,5,Pin_5*%
%TO.N,GND*%
X147955000Y-116840000D03*
%TO.P,J4,6,Pin_6*%
X150495000Y-116840000D03*
%TD*%
D12*
%TO.P,M1,1,+*%
%TO.N,MotA0*%
X137795000Y-121920000D03*
D13*
%TO.P,M1,2,-*%
%TO.N,MotA1*%
X140335000Y-121920000D03*
%TD*%
D14*
%TO.P,D2,1,K*%
%TO.N,Net-(D2-K)*%
X154940000Y-116840000D03*
D15*
%TO.P,D2,2,A*%
%TO.N,PA0*%
X154940000Y-114300000D03*
%TD*%
%TA.AperFunction,Conductor*%
%TO.N,GND*%
G36*
X165037500Y-73677113D02*
G01*
X165082887Y-73722500D01*
X165099500Y-73784500D01*
X165099500Y-134495500D01*
X165082887Y-134557500D01*
X165037500Y-134602887D01*
X164975500Y-134619500D01*
X89024500Y-134619500D01*
X88962500Y-134602887D01*
X88917113Y-134557500D01*
X88900500Y-134495500D01*
X88900500Y-128520000D01*
X130801128Y-128520000D01*
X130853733Y-128716326D01*
X130949865Y-128922480D01*
X131080341Y-129108819D01*
X131241180Y-129269658D01*
X131427519Y-129400134D01*
X131633673Y-129496266D01*
X131829999Y-129548871D01*
X131830000Y-129548872D01*
X131830000Y-128520000D01*
X132330000Y-128520000D01*
X132330000Y-129548871D01*
X132526326Y-129496266D01*
X132732480Y-129400134D01*
X132918819Y-129269658D01*
X133079658Y-129108819D01*
X133210134Y-128922480D01*
X133306266Y-128716326D01*
X133358872Y-128520000D01*
X132330000Y-128520000D01*
X131830000Y-128520000D01*
X130801128Y-128520000D01*
X88900500Y-128520000D01*
X88900500Y-126999999D01*
X102784340Y-126999999D01*
X102804936Y-127235407D01*
X102814297Y-127270341D01*
X102866097Y-127463663D01*
X102965965Y-127677830D01*
X103101505Y-127871401D01*
X103268599Y-128038495D01*
X103462170Y-128174035D01*
X103676337Y-128273903D01*
X103904592Y-128335063D01*
X104140000Y-128355659D01*
X104375408Y-128335063D01*
X104603663Y-128273903D01*
X104817830Y-128174035D01*
X105011401Y-128038495D01*
X105178495Y-127871401D01*
X105314035Y-127677830D01*
X105413903Y-127463663D01*
X105475063Y-127235408D01*
X105495659Y-127000000D01*
X105495659Y-126999999D01*
X123104340Y-126999999D01*
X123124936Y-127235407D01*
X123134297Y-127270341D01*
X123186097Y-127463663D01*
X123285965Y-127677830D01*
X123421505Y-127871401D01*
X123588599Y-128038495D01*
X123782170Y-128174035D01*
X123996337Y-128273903D01*
X124224592Y-128335063D01*
X124460000Y-128355659D01*
X124695408Y-128335063D01*
X124923663Y-128273903D01*
X125137830Y-128174035D01*
X125331401Y-128038495D01*
X125349896Y-128020000D01*
X130801128Y-128020000D01*
X131830000Y-128020000D01*
X131830000Y-126991128D01*
X132330000Y-126991128D01*
X132330000Y-128020000D01*
X133358872Y-128020000D01*
X133358871Y-128019999D01*
X133306266Y-127823673D01*
X133210134Y-127617519D01*
X133079658Y-127431180D01*
X132918819Y-127270341D01*
X132732480Y-127139865D01*
X132526326Y-127043733D01*
X132330000Y-126991128D01*
X131830000Y-126991128D01*
X131829999Y-126991128D01*
X131633673Y-127043733D01*
X131427519Y-127139865D01*
X131241180Y-127270341D01*
X131080341Y-127431180D01*
X130949865Y-127617519D01*
X130853733Y-127823673D01*
X130801128Y-128019999D01*
X130801128Y-128020000D01*
X125349896Y-128020000D01*
X125498495Y-127871401D01*
X125634035Y-127677830D01*
X125733903Y-127463663D01*
X125795063Y-127235408D01*
X125815659Y-127000000D01*
X125795063Y-126764592D01*
X125733903Y-126536337D01*
X125634035Y-126322171D01*
X125498495Y-126128599D01*
X125331401Y-125961505D01*
X125145839Y-125831573D01*
X125106975Y-125787257D01*
X125092964Y-125730000D01*
X125106975Y-125672743D01*
X125145839Y-125628426D01*
X125331401Y-125498495D01*
X125498495Y-125331401D01*
X125634035Y-125137830D01*
X125733903Y-124923663D01*
X125795063Y-124695408D01*
X125815659Y-124460000D01*
X125795063Y-124224592D01*
X125733903Y-123996337D01*
X125634035Y-123782171D01*
X125498495Y-123588599D01*
X125331401Y-123421505D01*
X125145839Y-123291573D01*
X125106975Y-123247257D01*
X125092964Y-123190000D01*
X125106975Y-123132743D01*
X125145839Y-123088426D01*
X125331401Y-122958495D01*
X125472027Y-122817869D01*
X136444500Y-122817869D01*
X136450909Y-122877484D01*
X136476056Y-122944906D01*
X136501204Y-123012331D01*
X136587454Y-123127546D01*
X136702669Y-123213796D01*
X136837517Y-123264091D01*
X136897127Y-123270500D01*
X138692872Y-123270499D01*
X138752483Y-123264091D01*
X138887331Y-123213796D01*
X139002546Y-123127546D01*
X139088796Y-123012331D01*
X139137810Y-122880916D01*
X139172789Y-122830537D01*
X139227634Y-122803084D01*
X139288927Y-122805273D01*
X139341673Y-122836569D01*
X139463599Y-122958495D01*
X139657170Y-123094035D01*
X139871337Y-123193903D01*
X140099592Y-123255063D01*
X140335000Y-123275659D01*
X140570408Y-123255063D01*
X140798663Y-123193903D01*
X141012830Y-123094035D01*
X141206401Y-122958495D01*
X141347027Y-122817869D01*
X144064500Y-122817869D01*
X144070909Y-122877484D01*
X144096056Y-122944906D01*
X144121204Y-123012331D01*
X144207454Y-123127546D01*
X144322669Y-123213796D01*
X144457517Y-123264091D01*
X144517127Y-123270500D01*
X146312872Y-123270499D01*
X146372483Y-123264091D01*
X146507331Y-123213796D01*
X146622546Y-123127546D01*
X146708796Y-123012331D01*
X146757810Y-122880916D01*
X146792789Y-122830537D01*
X146847634Y-122803084D01*
X146908927Y-122805273D01*
X146961673Y-122836569D01*
X147083599Y-122958495D01*
X147277170Y-123094035D01*
X147491337Y-123193903D01*
X147719592Y-123255063D01*
X147955000Y-123275659D01*
X148190408Y-123255063D01*
X148418663Y-123193903D01*
X148427035Y-123189999D01*
X158714531Y-123189999D01*
X158734364Y-123416689D01*
X158793261Y-123636497D01*
X158889432Y-123842735D01*
X159019953Y-124029140D01*
X159180859Y-124190046D01*
X159367264Y-124320567D01*
X159367265Y-124320567D01*
X159367266Y-124320568D01*
X159573504Y-124416739D01*
X159793308Y-124475635D01*
X160020000Y-124495468D01*
X160246692Y-124475635D01*
X160466496Y-124416739D01*
X160672734Y-124320568D01*
X160859139Y-124190047D01*
X161020047Y-124029139D01*
X161150568Y-123842734D01*
X161246739Y-123636496D01*
X161305635Y-123416692D01*
X161325468Y-123190000D01*
X161305635Y-122963308D01*
X161246739Y-122743504D01*
X161150568Y-122537266D01*
X161043014Y-122383662D01*
X161020046Y-122350859D01*
X160859140Y-122189953D01*
X160672735Y-122059432D01*
X160466497Y-121963261D01*
X160246689Y-121904364D01*
X160020000Y-121884531D01*
X159793310Y-121904364D01*
X159573502Y-121963261D01*
X159367264Y-122059432D01*
X159180859Y-122189953D01*
X159019953Y-122350859D01*
X158889432Y-122537264D01*
X158793261Y-122743502D01*
X158734364Y-122963310D01*
X158714531Y-123189999D01*
X148427035Y-123189999D01*
X148632830Y-123094035D01*
X148826401Y-122958495D01*
X148993495Y-122791401D01*
X149129035Y-122597830D01*
X149228903Y-122383663D01*
X149290063Y-122155408D01*
X149310659Y-121920000D01*
X149290063Y-121684592D01*
X149228903Y-121456337D01*
X149129035Y-121242171D01*
X148993495Y-121048599D01*
X148826401Y-120881505D01*
X148632830Y-120745965D01*
X148418663Y-120646097D01*
X148357501Y-120629709D01*
X148190407Y-120584936D01*
X147955000Y-120564340D01*
X147719592Y-120584936D01*
X147491336Y-120646097D01*
X147277170Y-120745965D01*
X147083601Y-120881503D01*
X146961673Y-121003431D01*
X146908926Y-121034726D01*
X146847634Y-121036915D01*
X146792789Y-121009462D01*
X146757810Y-120959082D01*
X146749326Y-120936335D01*
X146708796Y-120827669D01*
X146622546Y-120712454D01*
X146507331Y-120626204D01*
X146372483Y-120575909D01*
X146312873Y-120569500D01*
X146312869Y-120569500D01*
X144517130Y-120569500D01*
X144457515Y-120575909D01*
X144322669Y-120626204D01*
X144207454Y-120712454D01*
X144121204Y-120827668D01*
X144070909Y-120962516D01*
X144064500Y-121022130D01*
X144064500Y-122817869D01*
X141347027Y-122817869D01*
X141373495Y-122791401D01*
X141509035Y-122597830D01*
X141608903Y-122383663D01*
X141670063Y-122155408D01*
X141690659Y-121920000D01*
X141670063Y-121684592D01*
X141608903Y-121456337D01*
X141509035Y-121242171D01*
X141373495Y-121048599D01*
X141206401Y-120881505D01*
X141012830Y-120745965D01*
X140798663Y-120646097D01*
X140737501Y-120629709D01*
X140570407Y-120584936D01*
X140335000Y-120564340D01*
X140099592Y-120584936D01*
X139871336Y-120646097D01*
X139657170Y-120745965D01*
X139463601Y-120881503D01*
X139341673Y-121003431D01*
X139288926Y-121034726D01*
X139227634Y-121036915D01*
X139172789Y-121009462D01*
X139137810Y-120959082D01*
X139129326Y-120936335D01*
X139088796Y-120827669D01*
X139002546Y-120712454D01*
X138887331Y-120626204D01*
X138752483Y-120575909D01*
X138692873Y-120569500D01*
X138692869Y-120569500D01*
X136897130Y-120569500D01*
X136837515Y-120575909D01*
X136702669Y-120626204D01*
X136587454Y-120712454D01*
X136501204Y-120827668D01*
X136450909Y-120962516D01*
X136444500Y-121022130D01*
X136444500Y-122817869D01*
X125472027Y-122817869D01*
X125498495Y-122791401D01*
X125634035Y-122597830D01*
X125733903Y-122383663D01*
X125795063Y-122155408D01*
X125815659Y-121920000D01*
X125795063Y-121684592D01*
X125733903Y-121456337D01*
X125634035Y-121242171D01*
X125498495Y-121048599D01*
X125331401Y-120881505D01*
X125145839Y-120751573D01*
X125106974Y-120707255D01*
X125092964Y-120649999D01*
X125106975Y-120592742D01*
X125145837Y-120548428D01*
X125331401Y-120418495D01*
X125498495Y-120251401D01*
X125634035Y-120057830D01*
X125733903Y-119843663D01*
X125795063Y-119615408D01*
X125815659Y-119380000D01*
X125795063Y-119144592D01*
X125733903Y-118916337D01*
X125634035Y-118702171D01*
X125498495Y-118508599D01*
X125331401Y-118341505D01*
X125145839Y-118211573D01*
X125106974Y-118167255D01*
X125092964Y-118109999D01*
X125106975Y-118052742D01*
X125145837Y-118008428D01*
X125331401Y-117878495D01*
X125472027Y-117737869D01*
X136444500Y-117737869D01*
X136450909Y-117797484D01*
X136469558Y-117847483D01*
X136501204Y-117932331D01*
X136587454Y-118047546D01*
X136702669Y-118133796D01*
X136837517Y-118184091D01*
X136897127Y-118190500D01*
X138692872Y-118190499D01*
X138752483Y-118184091D01*
X138887331Y-118133796D01*
X139002546Y-118047546D01*
X139088796Y-117932331D01*
X139137810Y-117800916D01*
X139172789Y-117750537D01*
X139227634Y-117723084D01*
X139288927Y-117725273D01*
X139341673Y-117756569D01*
X139463599Y-117878495D01*
X139657170Y-118014035D01*
X139871337Y-118113903D01*
X140099592Y-118175063D01*
X140335000Y-118195659D01*
X140570408Y-118175063D01*
X140798663Y-118113903D01*
X141012830Y-118014035D01*
X141206401Y-117878495D01*
X141373495Y-117711401D01*
X141503426Y-117525839D01*
X141547743Y-117486975D01*
X141605000Y-117472964D01*
X141662257Y-117486975D01*
X141706573Y-117525839D01*
X141836505Y-117711401D01*
X142003599Y-117878495D01*
X142197170Y-118014035D01*
X142411337Y-118113903D01*
X142639592Y-118175063D01*
X142875000Y-118195659D01*
X143110408Y-118175063D01*
X143338663Y-118113903D01*
X143552830Y-118014035D01*
X143746401Y-117878495D01*
X143913495Y-117711401D01*
X144043426Y-117525839D01*
X144087743Y-117486975D01*
X144145000Y-117472964D01*
X144202257Y-117486975D01*
X144246573Y-117525839D01*
X144376505Y-117711401D01*
X144543599Y-117878495D01*
X144737170Y-118014035D01*
X144951337Y-118113903D01*
X145179592Y-118175063D01*
X145415000Y-118195659D01*
X145650408Y-118175063D01*
X145878663Y-118113903D01*
X146092830Y-118014035D01*
X146286401Y-117878495D01*
X146453495Y-117711401D01*
X146583732Y-117525402D01*
X146628048Y-117486539D01*
X146685305Y-117472528D01*
X146742562Y-117486539D01*
X146786880Y-117525404D01*
X146916893Y-117711081D01*
X147083918Y-117878106D01*
X147277423Y-118013600D01*
X147491507Y-118113430D01*
X147704999Y-118170635D01*
X147705000Y-118170636D01*
X147705000Y-117090000D01*
X148205000Y-117090000D01*
X148205000Y-118170635D01*
X148418492Y-118113430D01*
X148632576Y-118013600D01*
X148826081Y-117878106D01*
X148993106Y-117711081D01*
X149123425Y-117524968D01*
X149167743Y-117486103D01*
X149225000Y-117472092D01*
X149282257Y-117486103D01*
X149326575Y-117524968D01*
X149456893Y-117711081D01*
X149623918Y-117878106D01*
X149817423Y-118013600D01*
X150031507Y-118113430D01*
X150244999Y-118170635D01*
X150245000Y-118170636D01*
X150245000Y-117090000D01*
X150745000Y-117090000D01*
X150745000Y-118170635D01*
X150958492Y-118113430D01*
X151172576Y-118013600D01*
X151366081Y-117878106D01*
X151533106Y-117711081D01*
X151668600Y-117517576D01*
X151768430Y-117303492D01*
X151825636Y-117090000D01*
X150745000Y-117090000D01*
X150245000Y-117090000D01*
X148205000Y-117090000D01*
X147705000Y-117090000D01*
X147705000Y-116590000D01*
X148205000Y-116590000D01*
X150245000Y-116590000D01*
X150245000Y-115509364D01*
X150745000Y-115509364D01*
X150745000Y-116590000D01*
X151825636Y-116590000D01*
X151825635Y-116589999D01*
X151768430Y-116376507D01*
X151668599Y-116162421D01*
X151533109Y-115968921D01*
X151366081Y-115801893D01*
X151172576Y-115666399D01*
X150958492Y-115566569D01*
X150745000Y-115509364D01*
X150245000Y-115509364D01*
X150244999Y-115509364D01*
X150031507Y-115566569D01*
X149817421Y-115666400D01*
X149623921Y-115801890D01*
X149456893Y-115968918D01*
X149326575Y-116155032D01*
X149282257Y-116193897D01*
X149225000Y-116207908D01*
X149167743Y-116193897D01*
X149123425Y-116155032D01*
X148993106Y-115968918D01*
X148826081Y-115801893D01*
X148632576Y-115666399D01*
X148418492Y-115566569D01*
X148205000Y-115509364D01*
X148205000Y-116590000D01*
X147705000Y-116590000D01*
X147705000Y-115509364D01*
X147704999Y-115509364D01*
X147491507Y-115566569D01*
X147277421Y-115666400D01*
X147083921Y-115801890D01*
X146916893Y-115968918D01*
X146786880Y-116154596D01*
X146742562Y-116193461D01*
X146685305Y-116207472D01*
X146628048Y-116193461D01*
X146583730Y-116154595D01*
X146487033Y-116016497D01*
X146453495Y-115968599D01*
X146286401Y-115801505D01*
X146092830Y-115665965D01*
X145878663Y-115566097D01*
X145817502Y-115549709D01*
X145650407Y-115504936D01*
X145415000Y-115484340D01*
X145179592Y-115504936D01*
X144951336Y-115566097D01*
X144737170Y-115665965D01*
X144543598Y-115801505D01*
X144376505Y-115968598D01*
X144246575Y-116154159D01*
X144202257Y-116193025D01*
X144145000Y-116207036D01*
X144087743Y-116193025D01*
X144043425Y-116154159D01*
X143947033Y-116016497D01*
X143913495Y-115968599D01*
X143746401Y-115801505D01*
X143552830Y-115665965D01*
X143338663Y-115566097D01*
X143277502Y-115549709D01*
X143110407Y-115504936D01*
X142875000Y-115484340D01*
X142639592Y-115504936D01*
X142411336Y-115566097D01*
X142197170Y-115665965D01*
X142003598Y-115801505D01*
X141836505Y-115968598D01*
X141706575Y-116154159D01*
X141662257Y-116193025D01*
X141605000Y-116207036D01*
X141547743Y-116193025D01*
X141503425Y-116154159D01*
X141407033Y-116016497D01*
X141373495Y-115968599D01*
X141206401Y-115801505D01*
X141012830Y-115665965D01*
X140798663Y-115566097D01*
X140737502Y-115549709D01*
X140570407Y-115504936D01*
X140335000Y-115484340D01*
X140099592Y-115504936D01*
X139871336Y-115566097D01*
X139657170Y-115665965D01*
X139463601Y-115801503D01*
X139341673Y-115923431D01*
X139288926Y-115954726D01*
X139227634Y-115956915D01*
X139172789Y-115929462D01*
X139137810Y-115879082D01*
X139109019Y-115801890D01*
X139088796Y-115747669D01*
X139002546Y-115632454D01*
X138887331Y-115546204D01*
X138752483Y-115495909D01*
X138692873Y-115489500D01*
X138692869Y-115489500D01*
X136897130Y-115489500D01*
X136837515Y-115495909D01*
X136702669Y-115546204D01*
X136587454Y-115632454D01*
X136501204Y-115747668D01*
X136450909Y-115882516D01*
X136444500Y-115942130D01*
X136444500Y-117737869D01*
X125472027Y-117737869D01*
X125498495Y-117711401D01*
X125634035Y-117517830D01*
X125733903Y-117303663D01*
X125795063Y-117075408D01*
X125815659Y-116840000D01*
X125795063Y-116604592D01*
X125733903Y-116376337D01*
X125634035Y-116162171D01*
X125498495Y-115968599D01*
X125331401Y-115801505D01*
X125145839Y-115671573D01*
X125106975Y-115627257D01*
X125092964Y-115570000D01*
X125092964Y-115569999D01*
X130774531Y-115569999D01*
X130794364Y-115796689D01*
X130853261Y-116016497D01*
X130949432Y-116222735D01*
X131079953Y-116409140D01*
X131240859Y-116570046D01*
X131427264Y-116700567D01*
X131427265Y-116700567D01*
X131427266Y-116700568D01*
X131633504Y-116796739D01*
X131853308Y-116855635D01*
X132080000Y-116875468D01*
X132306692Y-116855635D01*
X132526496Y-116796739D01*
X132732734Y-116700568D01*
X132919139Y-116570047D01*
X133080047Y-116409139D01*
X133210568Y-116222734D01*
X133306739Y-116016496D01*
X133365635Y-115796692D01*
X133385468Y-115570000D01*
X133365635Y-115343308D01*
X133306739Y-115123504D01*
X133210568Y-114917266D01*
X133103014Y-114763662D01*
X133080046Y-114730859D01*
X132919140Y-114569953D01*
X132732735Y-114439432D01*
X132526497Y-114343261D01*
X132365044Y-114300000D01*
X153534699Y-114300000D01*
X153553865Y-114531299D01*
X153553865Y-114531301D01*
X153553866Y-114531305D01*
X153604401Y-114730861D01*
X153610844Y-114756303D01*
X153704076Y-114968849D01*
X153831021Y-115163153D01*
X153925803Y-115266114D01*
X153954575Y-115318865D01*
X153955168Y-115378951D01*
X153927441Y-115432261D01*
X153877906Y-115466276D01*
X153797671Y-115496202D01*
X153682454Y-115582454D01*
X153596204Y-115697668D01*
X153545909Y-115832515D01*
X153545909Y-115832517D01*
X153540534Y-115882516D01*
X153539500Y-115892130D01*
X153539500Y-117787869D01*
X153545909Y-117847484D01*
X153557474Y-117878491D01*
X153596204Y-117982331D01*
X153682454Y-118097546D01*
X153797669Y-118183796D01*
X153932517Y-118234091D01*
X153992127Y-118240500D01*
X155887872Y-118240499D01*
X155947483Y-118234091D01*
X156082331Y-118183796D01*
X156197546Y-118097546D01*
X156283796Y-117982331D01*
X156334091Y-117847483D01*
X156340500Y-117787873D01*
X156340499Y-115892128D01*
X156334091Y-115832517D01*
X156283796Y-115697669D01*
X156197546Y-115582454D01*
X156082331Y-115496204D01*
X156007852Y-115468425D01*
X156002093Y-115466277D01*
X155952558Y-115432261D01*
X155924831Y-115378951D01*
X155925424Y-115318864D01*
X155954196Y-115266114D01*
X156048979Y-115163153D01*
X156175924Y-114968849D01*
X156269157Y-114756300D01*
X156326134Y-114531305D01*
X156345300Y-114300000D01*
X156326134Y-114068695D01*
X156269157Y-113843700D01*
X156175924Y-113631151D01*
X156048979Y-113436847D01*
X155891784Y-113266087D01*
X155708626Y-113123530D01*
X155504503Y-113013064D01*
X155504499Y-113013062D01*
X155504498Y-113013062D01*
X155284984Y-112937702D01*
X155113281Y-112909050D01*
X155056049Y-112899500D01*
X154823951Y-112899500D01*
X154778164Y-112907140D01*
X154595015Y-112937702D01*
X154375501Y-113013062D01*
X154171372Y-113123531D01*
X153988215Y-113266087D01*
X153831020Y-113436848D01*
X153704076Y-113631150D01*
X153610844Y-113843696D01*
X153553865Y-114068700D01*
X153534699Y-114300000D01*
X132365044Y-114300000D01*
X132306689Y-114284364D01*
X132080000Y-114264531D01*
X131853310Y-114284364D01*
X131633502Y-114343261D01*
X131427264Y-114439432D01*
X131240859Y-114569953D01*
X131079953Y-114730859D01*
X130949432Y-114917264D01*
X130853261Y-115123502D01*
X130794364Y-115343310D01*
X130774531Y-115569999D01*
X125092964Y-115569999D01*
X125106975Y-115512743D01*
X125145839Y-115468426D01*
X125331401Y-115338495D01*
X125498495Y-115171401D01*
X125634035Y-114977830D01*
X125733903Y-114763663D01*
X125795063Y-114535408D01*
X125815659Y-114300000D01*
X125795063Y-114064592D01*
X125733903Y-113836337D01*
X125634035Y-113622171D01*
X125498495Y-113428599D01*
X125331401Y-113261505D01*
X125145839Y-113131573D01*
X125106975Y-113087257D01*
X125092964Y-113030000D01*
X125106975Y-112972743D01*
X125145839Y-112928426D01*
X125331401Y-112798495D01*
X125498495Y-112631401D01*
X125634035Y-112437830D01*
X125733903Y-112223663D01*
X125795063Y-111995408D01*
X125815659Y-111760000D01*
X125795063Y-111524592D01*
X125733903Y-111296337D01*
X125634035Y-111082171D01*
X125498495Y-110888599D01*
X125349896Y-110740000D01*
X158741128Y-110740000D01*
X158793733Y-110936326D01*
X158889865Y-111142480D01*
X159020341Y-111328819D01*
X159181180Y-111489658D01*
X159367519Y-111620134D01*
X159573673Y-111716266D01*
X159769999Y-111768871D01*
X159770000Y-111768872D01*
X159770000Y-110740000D01*
X160270000Y-110740000D01*
X160270000Y-111768871D01*
X160466326Y-111716266D01*
X160672480Y-111620134D01*
X160858819Y-111489658D01*
X161019658Y-111328819D01*
X161150134Y-111142480D01*
X161246266Y-110936326D01*
X161298872Y-110740000D01*
X160270000Y-110740000D01*
X159770000Y-110740000D01*
X158741128Y-110740000D01*
X125349896Y-110740000D01*
X125331401Y-110721505D01*
X125145839Y-110591573D01*
X125106975Y-110547257D01*
X125092964Y-110490000D01*
X125106975Y-110432743D01*
X125145839Y-110388426D01*
X125331401Y-110258495D01*
X125498495Y-110091401D01*
X125634035Y-109897830D01*
X125733903Y-109683663D01*
X125795063Y-109455408D01*
X125815659Y-109220000D01*
X125795063Y-108984592D01*
X125733903Y-108756337D01*
X125634035Y-108542171D01*
X125498495Y-108348599D01*
X125331401Y-108181505D01*
X125145839Y-108051573D01*
X125106975Y-108007257D01*
X125092964Y-107950000D01*
X125106975Y-107892743D01*
X125145839Y-107848426D01*
X125331401Y-107718495D01*
X125498495Y-107551401D01*
X125634035Y-107357830D01*
X125733903Y-107143663D01*
X125795063Y-106915408D01*
X125815659Y-106680000D01*
X128134699Y-106680000D01*
X128153865Y-106911299D01*
X128153865Y-106911301D01*
X128153866Y-106911305D01*
X128210843Y-107136300D01*
X128210844Y-107136303D01*
X128304075Y-107348848D01*
X128304076Y-107348849D01*
X128431021Y-107543153D01*
X128525803Y-107646114D01*
X128554575Y-107698865D01*
X128555168Y-107758951D01*
X128527441Y-107812261D01*
X128477906Y-107846276D01*
X128397671Y-107876202D01*
X128282454Y-107962454D01*
X128196204Y-108077668D01*
X128145909Y-108212516D01*
X128139500Y-108272130D01*
X128139500Y-110167869D01*
X128145909Y-110227484D01*
X128157474Y-110258491D01*
X128196204Y-110362331D01*
X128282454Y-110477546D01*
X128397669Y-110563796D01*
X128532517Y-110614091D01*
X128592127Y-110620500D01*
X130487872Y-110620499D01*
X130547483Y-110614091D01*
X130682331Y-110563796D01*
X130797546Y-110477546D01*
X130883796Y-110362331D01*
X130929422Y-110240000D01*
X158741128Y-110240000D01*
X159770000Y-110240000D01*
X159770000Y-109211128D01*
X160270000Y-109211128D01*
X160270000Y-110240000D01*
X161298872Y-110240000D01*
X161298871Y-110239999D01*
X161246266Y-110043673D01*
X161150134Y-109837519D01*
X161019658Y-109651180D01*
X160858819Y-109490341D01*
X160672480Y-109359865D01*
X160466326Y-109263733D01*
X160270000Y-109211128D01*
X159770000Y-109211128D01*
X159769999Y-109211128D01*
X159573673Y-109263733D01*
X159367519Y-109359865D01*
X159181180Y-109490341D01*
X159020341Y-109651180D01*
X158889865Y-109837519D01*
X158793733Y-110043673D01*
X158741128Y-110239999D01*
X158741128Y-110240000D01*
X130929422Y-110240000D01*
X130934091Y-110227483D01*
X130940500Y-110167873D01*
X130940499Y-108272128D01*
X130934091Y-108212517D01*
X130883796Y-108077669D01*
X130797546Y-107962454D01*
X130682331Y-107876204D01*
X130607852Y-107848425D01*
X130602093Y-107846277D01*
X130552558Y-107812261D01*
X130524831Y-107758951D01*
X130525424Y-107698864D01*
X130554196Y-107646114D01*
X130648979Y-107543153D01*
X130775924Y-107348849D01*
X130869157Y-107136300D01*
X130926134Y-106911305D01*
X130945300Y-106680000D01*
X130926134Y-106448695D01*
X130869157Y-106223700D01*
X130775924Y-106011151D01*
X130648979Y-105816847D01*
X130491784Y-105646087D01*
X130308626Y-105503530D01*
X130104503Y-105393064D01*
X130104499Y-105393062D01*
X130104498Y-105393062D01*
X129884984Y-105317702D01*
X129713282Y-105289050D01*
X129656049Y-105279500D01*
X129423951Y-105279500D01*
X129378164Y-105287140D01*
X129195015Y-105317702D01*
X128975501Y-105393062D01*
X128771372Y-105503531D01*
X128588215Y-105646087D01*
X128431020Y-105816848D01*
X128304076Y-106011150D01*
X128210844Y-106223696D01*
X128210842Y-106223700D01*
X128210843Y-106223700D01*
X128163654Y-106410046D01*
X128153865Y-106448700D01*
X128134699Y-106680000D01*
X125815659Y-106680000D01*
X125795063Y-106444592D01*
X125733903Y-106216337D01*
X125634035Y-106002171D01*
X125498495Y-105808599D01*
X125331401Y-105641505D01*
X125145839Y-105511573D01*
X125106975Y-105467257D01*
X125092964Y-105410000D01*
X125106975Y-105352743D01*
X125145839Y-105308426D01*
X125331401Y-105178495D01*
X125472027Y-105037869D01*
X133904500Y-105037869D01*
X133910909Y-105097484D01*
X133936056Y-105164907D01*
X133961204Y-105232331D01*
X134047454Y-105347546D01*
X134162669Y-105433796D01*
X134297517Y-105484091D01*
X134357127Y-105490500D01*
X136152872Y-105490499D01*
X136212483Y-105484091D01*
X136347331Y-105433796D01*
X136462546Y-105347546D01*
X136548796Y-105232331D01*
X136597810Y-105100916D01*
X136632789Y-105050537D01*
X136687634Y-105023084D01*
X136748927Y-105025273D01*
X136801673Y-105056569D01*
X136923599Y-105178495D01*
X137117170Y-105314035D01*
X137331337Y-105413903D01*
X137559592Y-105475063D01*
X137795000Y-105495659D01*
X138030408Y-105475063D01*
X138258663Y-105413903D01*
X138472830Y-105314035D01*
X138666401Y-105178495D01*
X138833495Y-105011401D01*
X138963426Y-104825839D01*
X139007743Y-104786975D01*
X139065000Y-104772964D01*
X139122257Y-104786975D01*
X139166573Y-104825839D01*
X139296505Y-105011401D01*
X139463599Y-105178495D01*
X139657170Y-105314035D01*
X139871337Y-105413903D01*
X140099592Y-105475063D01*
X140335000Y-105495659D01*
X140570408Y-105475063D01*
X140798663Y-105413903D01*
X141012830Y-105314035D01*
X141206401Y-105178495D01*
X141373495Y-105011401D01*
X141503426Y-104825839D01*
X141547743Y-104786975D01*
X141605000Y-104772964D01*
X141662257Y-104786975D01*
X141706573Y-104825839D01*
X141836505Y-105011401D01*
X142003599Y-105178495D01*
X142197170Y-105314035D01*
X142411337Y-105413903D01*
X142639592Y-105475063D01*
X142875000Y-105495659D01*
X143110408Y-105475063D01*
X143338663Y-105413903D01*
X143552830Y-105314035D01*
X143746401Y-105178495D01*
X143913495Y-105011401D01*
X144043426Y-104825839D01*
X144087743Y-104786975D01*
X144145000Y-104772964D01*
X144202257Y-104786975D01*
X144246573Y-104825839D01*
X144376505Y-105011401D01*
X144543599Y-105178495D01*
X144737170Y-105314035D01*
X144951337Y-105413903D01*
X145179592Y-105475063D01*
X145415000Y-105495659D01*
X145650408Y-105475063D01*
X145878663Y-105413903D01*
X146092830Y-105314035D01*
X146286401Y-105178495D01*
X146453495Y-105011401D01*
X146583426Y-104825839D01*
X146627743Y-104786975D01*
X146685000Y-104772964D01*
X146742257Y-104786975D01*
X146786573Y-104825839D01*
X146916505Y-105011401D01*
X147083599Y-105178495D01*
X147277170Y-105314035D01*
X147491337Y-105413903D01*
X147719592Y-105475063D01*
X147955000Y-105495659D01*
X148190408Y-105475063D01*
X148418663Y-105413903D01*
X148632830Y-105314035D01*
X148826401Y-105178495D01*
X148993495Y-105011401D01*
X149123732Y-104825402D01*
X149168048Y-104786539D01*
X149225305Y-104772528D01*
X149282562Y-104786539D01*
X149326880Y-104825404D01*
X149456893Y-105011081D01*
X149623918Y-105178106D01*
X149817423Y-105313600D01*
X150031507Y-105413430D01*
X150244999Y-105470635D01*
X150245000Y-105470636D01*
X150245000Y-105470635D01*
X150745000Y-105470635D01*
X150958492Y-105413430D01*
X151172576Y-105313600D01*
X151366081Y-105178106D01*
X151533109Y-105011078D01*
X151663119Y-104825405D01*
X151707437Y-104786539D01*
X151764694Y-104772528D01*
X151821951Y-104786539D01*
X151866267Y-104825402D01*
X151996505Y-105011401D01*
X152163599Y-105178495D01*
X152357170Y-105314035D01*
X152571337Y-105413903D01*
X152799592Y-105475063D01*
X153035000Y-105495659D01*
X153270408Y-105475063D01*
X153498663Y-105413903D01*
X153507033Y-105410000D01*
X156174531Y-105410000D01*
X156194364Y-105636689D01*
X156253261Y-105856497D01*
X156349432Y-106062735D01*
X156479953Y-106249140D01*
X156640859Y-106410046D01*
X156827264Y-106540567D01*
X156827265Y-106540567D01*
X156827266Y-106540568D01*
X157033504Y-106636739D01*
X157253308Y-106695635D01*
X157480000Y-106715468D01*
X157706692Y-106695635D01*
X157926496Y-106636739D01*
X158132734Y-106540568D01*
X158319139Y-106410047D01*
X158480047Y-106249139D01*
X158610568Y-106062734D01*
X158706739Y-105856496D01*
X158765635Y-105636692D01*
X158785468Y-105410000D01*
X160924531Y-105410000D01*
X160944364Y-105636689D01*
X161003261Y-105856497D01*
X161099432Y-106062735D01*
X161229953Y-106249140D01*
X161390859Y-106410046D01*
X161577264Y-106540567D01*
X161577265Y-106540567D01*
X161577266Y-106540568D01*
X161783504Y-106636739D01*
X162003308Y-106695635D01*
X162230000Y-106715468D01*
X162456692Y-106695635D01*
X162676496Y-106636739D01*
X162882734Y-106540568D01*
X163069139Y-106410047D01*
X163230047Y-106249139D01*
X163360568Y-106062734D01*
X163456739Y-105856496D01*
X163515635Y-105636692D01*
X163535468Y-105410000D01*
X163515635Y-105183308D01*
X163456739Y-104963504D01*
X163360568Y-104757266D01*
X163253014Y-104603662D01*
X163230046Y-104570859D01*
X163069140Y-104409953D01*
X162882735Y-104279432D01*
X162676497Y-104183261D01*
X162456689Y-104124364D01*
X162230000Y-104104531D01*
X162003310Y-104124364D01*
X161783502Y-104183261D01*
X161577264Y-104279432D01*
X161390859Y-104409953D01*
X161229953Y-104570859D01*
X161099432Y-104757264D01*
X161003261Y-104963502D01*
X160944364Y-105183310D01*
X160924531Y-105410000D01*
X158785468Y-105410000D01*
X158765635Y-105183308D01*
X158706739Y-104963504D01*
X158610568Y-104757266D01*
X158503014Y-104603662D01*
X158480046Y-104570859D01*
X158319140Y-104409953D01*
X158132735Y-104279432D01*
X157926497Y-104183261D01*
X157706689Y-104124364D01*
X157480000Y-104104531D01*
X157253310Y-104124364D01*
X157033502Y-104183261D01*
X156827264Y-104279432D01*
X156640859Y-104409953D01*
X156479953Y-104570859D01*
X156349432Y-104757264D01*
X156253261Y-104963502D01*
X156194364Y-105183310D01*
X156174531Y-105410000D01*
X153507033Y-105410000D01*
X153712830Y-105314035D01*
X153906401Y-105178495D01*
X154073495Y-105011401D01*
X154209035Y-104817830D01*
X154308903Y-104603663D01*
X154370063Y-104375408D01*
X154390659Y-104140000D01*
X154370063Y-103904592D01*
X154308903Y-103676337D01*
X154209035Y-103462171D01*
X154073495Y-103268599D01*
X153906401Y-103101505D01*
X153712830Y-102965965D01*
X153498663Y-102866097D01*
X153437502Y-102849709D01*
X153270407Y-102804936D01*
X153035000Y-102784340D01*
X152799592Y-102804936D01*
X152571336Y-102866097D01*
X152357170Y-102965965D01*
X152163598Y-103101505D01*
X151996508Y-103268595D01*
X151866269Y-103454596D01*
X151821951Y-103493461D01*
X151764694Y-103507472D01*
X151707437Y-103493461D01*
X151663119Y-103454595D01*
X151533109Y-103268921D01*
X151366081Y-103101893D01*
X151172576Y-102966399D01*
X150958492Y-102866569D01*
X150745000Y-102809364D01*
X150745000Y-105470635D01*
X150245000Y-105470635D01*
X150245000Y-102809364D01*
X150244999Y-102809364D01*
X150031507Y-102866569D01*
X149817421Y-102966400D01*
X149623921Y-103101890D01*
X149456893Y-103268918D01*
X149326880Y-103454596D01*
X149282562Y-103493461D01*
X149225305Y-103507472D01*
X149168048Y-103493461D01*
X149123730Y-103454595D01*
X148993494Y-103268598D01*
X148826404Y-103101508D01*
X148826401Y-103101505D01*
X148632830Y-102965965D01*
X148418663Y-102866097D01*
X148357502Y-102849709D01*
X148190407Y-102804936D01*
X147955000Y-102784340D01*
X147719592Y-102804936D01*
X147491336Y-102866097D01*
X147277170Y-102965965D01*
X147083598Y-103101505D01*
X146916505Y-103268598D01*
X146786575Y-103454159D01*
X146742257Y-103493025D01*
X146685000Y-103507036D01*
X146627743Y-103493025D01*
X146583425Y-103454159D01*
X146453494Y-103268598D01*
X146286404Y-103101508D01*
X146286401Y-103101505D01*
X146092830Y-102965965D01*
X145878663Y-102866097D01*
X145817502Y-102849709D01*
X145650407Y-102804936D01*
X145415000Y-102784340D01*
X145179592Y-102804936D01*
X144951336Y-102866097D01*
X144737170Y-102965965D01*
X144543598Y-103101505D01*
X144376505Y-103268598D01*
X144246575Y-103454159D01*
X144202257Y-103493025D01*
X144145000Y-103507036D01*
X144087743Y-103493025D01*
X144043425Y-103454159D01*
X143913494Y-103268598D01*
X143746404Y-103101508D01*
X143746401Y-103101505D01*
X143552830Y-102965965D01*
X143338663Y-102866097D01*
X143277502Y-102849709D01*
X143110407Y-102804936D01*
X142875000Y-102784340D01*
X142639592Y-102804936D01*
X142411336Y-102866097D01*
X142197170Y-102965965D01*
X142003598Y-103101505D01*
X141836505Y-103268598D01*
X141706575Y-103454159D01*
X141662257Y-103493025D01*
X141605000Y-103507036D01*
X141547743Y-103493025D01*
X141503425Y-103454159D01*
X141373494Y-103268598D01*
X141206404Y-103101508D01*
X141206401Y-103101505D01*
X141012830Y-102965965D01*
X140798663Y-102866097D01*
X140737502Y-102849709D01*
X140570407Y-102804936D01*
X140335000Y-102784340D01*
X140099592Y-102804936D01*
X139871336Y-102866097D01*
X139657170Y-102965965D01*
X139463598Y-103101505D01*
X139296505Y-103268598D01*
X139166575Y-103454159D01*
X139122257Y-103493025D01*
X139065000Y-103507036D01*
X139007743Y-103493025D01*
X138963425Y-103454159D01*
X138833494Y-103268598D01*
X138666404Y-103101508D01*
X138666401Y-103101505D01*
X138472830Y-102965965D01*
X138258663Y-102866097D01*
X138197502Y-102849709D01*
X138030407Y-102804936D01*
X137795000Y-102784340D01*
X137559592Y-102804936D01*
X137331336Y-102866097D01*
X137117170Y-102965965D01*
X136923601Y-103101503D01*
X136801673Y-103223431D01*
X136748926Y-103254726D01*
X136687634Y-103256915D01*
X136632789Y-103229462D01*
X136597810Y-103179082D01*
X136569019Y-103101890D01*
X136548796Y-103047669D01*
X136462546Y-102932454D01*
X136347331Y-102846204D01*
X136212483Y-102795909D01*
X136152873Y-102789500D01*
X136152869Y-102789500D01*
X134357130Y-102789500D01*
X134297515Y-102795909D01*
X134162669Y-102846204D01*
X134047454Y-102932454D01*
X133961204Y-103047668D01*
X133910909Y-103182516D01*
X133904500Y-103242130D01*
X133904500Y-105037869D01*
X125472027Y-105037869D01*
X125498495Y-105011401D01*
X125634035Y-104817830D01*
X125733903Y-104603663D01*
X125795063Y-104375408D01*
X125815659Y-104140000D01*
X125795063Y-103904592D01*
X125733903Y-103676337D01*
X125634035Y-103462171D01*
X125498495Y-103268599D01*
X125331401Y-103101505D01*
X125145839Y-102971573D01*
X125106974Y-102927255D01*
X125092964Y-102869999D01*
X125106975Y-102812742D01*
X125145837Y-102768428D01*
X125331401Y-102638495D01*
X125498495Y-102471401D01*
X125634035Y-102277830D01*
X125733903Y-102063663D01*
X125795063Y-101835408D01*
X125815659Y-101600000D01*
X125795063Y-101364592D01*
X125733903Y-101136337D01*
X125634035Y-100922171D01*
X125498495Y-100728599D01*
X125331401Y-100561505D01*
X125145839Y-100431573D01*
X125106974Y-100387255D01*
X125092964Y-100329999D01*
X125106975Y-100272742D01*
X125145837Y-100228428D01*
X125331401Y-100098495D01*
X125498495Y-99931401D01*
X125634035Y-99737830D01*
X125733903Y-99523663D01*
X125795063Y-99295408D01*
X125815659Y-99060000D01*
X125795063Y-98824592D01*
X125733903Y-98596337D01*
X125634035Y-98382171D01*
X125498495Y-98188599D01*
X125331401Y-98021505D01*
X125145839Y-97891573D01*
X125106976Y-97847257D01*
X125092965Y-97790000D01*
X125106976Y-97732743D01*
X125145839Y-97688426D01*
X125331401Y-97558495D01*
X125498495Y-97391401D01*
X125634035Y-97197830D01*
X125733903Y-96983663D01*
X125795063Y-96755408D01*
X125815659Y-96520000D01*
X125815659Y-96519999D01*
X130724340Y-96519999D01*
X130744936Y-96755407D01*
X130776593Y-96873553D01*
X130806097Y-96983663D01*
X130905965Y-97197830D01*
X131041505Y-97391401D01*
X131208599Y-97558495D01*
X131402170Y-97694035D01*
X131616337Y-97793903D01*
X131844592Y-97855063D01*
X132080000Y-97875659D01*
X132315408Y-97855063D01*
X132543663Y-97793903D01*
X132757830Y-97694035D01*
X132893517Y-97599026D01*
X146594526Y-97599026D01*
X146667515Y-97650133D01*
X146873673Y-97746266D01*
X147093397Y-97805141D01*
X147320000Y-97824966D01*
X147546602Y-97805141D01*
X147766326Y-97746266D01*
X147972480Y-97650134D01*
X148045472Y-97599025D01*
X147320001Y-96873553D01*
X147320000Y-96873553D01*
X146594526Y-97599025D01*
X146594526Y-97599026D01*
X132893517Y-97599026D01*
X132951401Y-97558495D01*
X133118495Y-97391401D01*
X133254035Y-97197830D01*
X133353903Y-96983663D01*
X133415063Y-96755408D01*
X133435659Y-96520000D01*
X133435659Y-96519999D01*
X146015033Y-96519999D01*
X146034858Y-96746602D01*
X146093733Y-96966326D01*
X146189866Y-97172484D01*
X146240972Y-97245471D01*
X146240973Y-97245472D01*
X146966445Y-96520000D01*
X147673553Y-96520000D01*
X148399025Y-97245472D01*
X148450134Y-97172480D01*
X148546266Y-96966326D01*
X148605141Y-96746602D01*
X148624966Y-96519999D01*
X148605141Y-96293397D01*
X148546266Y-96073673D01*
X148450133Y-95867515D01*
X148399025Y-95794526D01*
X147673553Y-96519998D01*
X147673553Y-96520000D01*
X146966445Y-96520000D01*
X146966446Y-96519999D01*
X146966446Y-96519998D01*
X146240973Y-95794527D01*
X146189865Y-95867516D01*
X146093733Y-96073672D01*
X146034858Y-96293397D01*
X146015033Y-96519999D01*
X133435659Y-96519999D01*
X133415063Y-96284592D01*
X133353903Y-96056337D01*
X133254035Y-95842171D01*
X133118495Y-95648599D01*
X132951401Y-95481505D01*
X132893515Y-95440973D01*
X146594526Y-95440973D01*
X147320000Y-96166446D01*
X147320001Y-96166446D01*
X148045472Y-95440974D01*
X148045471Y-95440972D01*
X147972484Y-95389866D01*
X147766326Y-95293733D01*
X147546602Y-95234858D01*
X147320000Y-95215033D01*
X147093397Y-95234858D01*
X146873672Y-95293733D01*
X146667516Y-95389865D01*
X146594527Y-95440973D01*
X146594526Y-95440973D01*
X132893515Y-95440973D01*
X132765839Y-95351573D01*
X132726975Y-95307257D01*
X132712964Y-95250000D01*
X132726975Y-95192743D01*
X132765839Y-95148426D01*
X132951401Y-95018495D01*
X133118495Y-94851401D01*
X133254035Y-94657830D01*
X133353903Y-94443663D01*
X133415063Y-94215408D01*
X133435659Y-93980000D01*
X133435659Y-93979999D01*
X135804340Y-93979999D01*
X135824936Y-94215407D01*
X135869709Y-94382501D01*
X135886097Y-94443663D01*
X135985965Y-94657830D01*
X136121505Y-94851401D01*
X136288599Y-95018495D01*
X136482170Y-95154035D01*
X136696337Y-95253903D01*
X136924592Y-95315063D01*
X137160000Y-95335659D01*
X137395408Y-95315063D01*
X137623663Y-95253903D01*
X137837830Y-95154035D01*
X138031401Y-95018495D01*
X138153329Y-94896566D01*
X138206072Y-94865273D01*
X138267365Y-94863084D01*
X138322209Y-94890537D01*
X138357189Y-94940916D01*
X138406204Y-95072331D01*
X138492454Y-95187546D01*
X138607669Y-95273796D01*
X138742517Y-95324091D01*
X138802127Y-95330500D01*
X140597872Y-95330499D01*
X140657483Y-95324091D01*
X140792331Y-95273796D01*
X140907546Y-95187546D01*
X140993796Y-95072331D01*
X141044091Y-94937483D01*
X141050500Y-94877873D01*
X141050499Y-93082128D01*
X141044091Y-93022517D01*
X140993796Y-92887669D01*
X140907546Y-92772454D01*
X140792331Y-92686204D01*
X140657483Y-92635909D01*
X140597873Y-92629500D01*
X140597869Y-92629500D01*
X138802130Y-92629500D01*
X138742515Y-92635909D01*
X138607669Y-92686204D01*
X138492454Y-92772454D01*
X138406204Y-92887669D01*
X138357189Y-93019083D01*
X138322209Y-93069462D01*
X138267365Y-93096915D01*
X138206072Y-93094726D01*
X138153326Y-93063430D01*
X138031404Y-92941508D01*
X138031404Y-92941507D01*
X138031401Y-92941505D01*
X137837830Y-92805965D01*
X137623663Y-92706097D01*
X137562502Y-92689709D01*
X137395407Y-92644936D01*
X137160000Y-92624340D01*
X136924592Y-92644936D01*
X136696336Y-92706097D01*
X136482170Y-92805965D01*
X136288598Y-92941505D01*
X136121505Y-93108598D01*
X135985965Y-93302170D01*
X135886097Y-93516336D01*
X135824936Y-93744592D01*
X135804340Y-93979999D01*
X133435659Y-93979999D01*
X133415063Y-93744592D01*
X133353903Y-93516337D01*
X133254035Y-93302171D01*
X133118495Y-93108599D01*
X132951401Y-92941505D01*
X132765839Y-92811573D01*
X132726974Y-92767255D01*
X132712964Y-92709999D01*
X132726975Y-92652742D01*
X132765837Y-92608428D01*
X132951401Y-92478495D01*
X133118495Y-92311401D01*
X133254035Y-92117830D01*
X133353903Y-91903663D01*
X133415063Y-91675408D01*
X133428660Y-91519999D01*
X146014531Y-91519999D01*
X146034364Y-91746689D01*
X146093261Y-91966497D01*
X146189432Y-92172735D01*
X146319953Y-92359140D01*
X146480859Y-92520046D01*
X146667264Y-92650567D01*
X146667265Y-92650567D01*
X146667266Y-92650568D01*
X146873504Y-92746739D01*
X147093308Y-92805635D01*
X147320000Y-92825468D01*
X147546692Y-92805635D01*
X147766496Y-92746739D01*
X147845283Y-92710000D01*
X156174531Y-92710000D01*
X156194364Y-92936689D01*
X156253261Y-93156497D01*
X156349432Y-93362735D01*
X156479953Y-93549140D01*
X156640859Y-93710046D01*
X156827264Y-93840567D01*
X156827265Y-93840567D01*
X156827266Y-93840568D01*
X157033504Y-93936739D01*
X157253308Y-93995635D01*
X157480000Y-94015468D01*
X157706692Y-93995635D01*
X157926496Y-93936739D01*
X158132734Y-93840568D01*
X158319139Y-93710047D01*
X158480047Y-93549139D01*
X158610568Y-93362734D01*
X158706739Y-93156496D01*
X158759390Y-92960000D01*
X160951128Y-92960000D01*
X161003733Y-93156326D01*
X161099865Y-93362480D01*
X161230341Y-93548819D01*
X161391180Y-93709658D01*
X161577519Y-93840134D01*
X161783673Y-93936266D01*
X161979999Y-93988871D01*
X161980000Y-93988872D01*
X161980000Y-92960000D01*
X162480000Y-92960000D01*
X162480000Y-93988871D01*
X162676326Y-93936266D01*
X162882480Y-93840134D01*
X163068819Y-93709658D01*
X163229658Y-93548819D01*
X163360134Y-93362480D01*
X163456266Y-93156326D01*
X163508872Y-92960000D01*
X162480000Y-92960000D01*
X161980000Y-92960000D01*
X160951128Y-92960000D01*
X158759390Y-92960000D01*
X158765635Y-92936692D01*
X158785468Y-92710000D01*
X158765635Y-92483308D01*
X158759390Y-92460000D01*
X160951128Y-92460000D01*
X161980000Y-92460000D01*
X161980000Y-91431128D01*
X162480000Y-91431128D01*
X162480000Y-92460000D01*
X163508872Y-92460000D01*
X163508871Y-92459999D01*
X163456266Y-92263673D01*
X163360134Y-92057519D01*
X163229658Y-91871180D01*
X163068819Y-91710341D01*
X162882480Y-91579865D01*
X162676326Y-91483733D01*
X162480000Y-91431128D01*
X161980000Y-91431128D01*
X161979999Y-91431128D01*
X161783673Y-91483733D01*
X161577519Y-91579865D01*
X161391180Y-91710341D01*
X161230341Y-91871180D01*
X161099865Y-92057519D01*
X161003733Y-92263673D01*
X160951128Y-92459999D01*
X160951128Y-92460000D01*
X158759390Y-92460000D01*
X158706739Y-92263504D01*
X158610568Y-92057266D01*
X158547011Y-91966497D01*
X158480046Y-91870859D01*
X158319140Y-91709953D01*
X158132735Y-91579432D01*
X157926497Y-91483261D01*
X157706689Y-91424364D01*
X157480000Y-91404531D01*
X157253310Y-91424364D01*
X157033502Y-91483261D01*
X156827264Y-91579432D01*
X156640859Y-91709953D01*
X156479953Y-91870859D01*
X156349432Y-92057264D01*
X156253261Y-92263502D01*
X156194364Y-92483310D01*
X156174531Y-92710000D01*
X147845283Y-92710000D01*
X147972734Y-92650568D01*
X148159139Y-92520047D01*
X148320047Y-92359139D01*
X148450568Y-92172734D01*
X148546739Y-91966496D01*
X148605635Y-91746692D01*
X148625468Y-91520000D01*
X148605635Y-91293308D01*
X148546739Y-91073504D01*
X148450568Y-90867266D01*
X148376980Y-90762171D01*
X148320046Y-90680859D01*
X148159140Y-90519953D01*
X147972735Y-90389432D01*
X147766497Y-90293261D01*
X147546689Y-90234364D01*
X147320000Y-90214531D01*
X147093310Y-90234364D01*
X146873502Y-90293261D01*
X146667264Y-90389432D01*
X146480859Y-90519953D01*
X146319953Y-90680859D01*
X146189432Y-90867264D01*
X146093261Y-91073502D01*
X146034364Y-91293310D01*
X146014531Y-91519999D01*
X133428660Y-91519999D01*
X133435659Y-91440000D01*
X133415063Y-91204592D01*
X133353903Y-90976337D01*
X133254035Y-90762171D01*
X133118495Y-90568599D01*
X132951401Y-90401505D01*
X132765839Y-90271573D01*
X132726975Y-90227257D01*
X132712964Y-90170000D01*
X132726975Y-90112743D01*
X132765839Y-90068426D01*
X132951401Y-89938495D01*
X133118495Y-89771401D01*
X133254035Y-89577830D01*
X133353903Y-89363663D01*
X133415063Y-89135408D01*
X133435659Y-88900000D01*
X133415063Y-88664592D01*
X133353903Y-88436337D01*
X133254035Y-88222171D01*
X133118495Y-88028599D01*
X132951401Y-87861505D01*
X132765839Y-87731573D01*
X132726975Y-87687257D01*
X132712964Y-87630000D01*
X132726975Y-87572743D01*
X132765839Y-87528426D01*
X132951401Y-87398495D01*
X133092027Y-87257869D01*
X135809500Y-87257869D01*
X135815909Y-87317483D01*
X135866204Y-87452331D01*
X135952454Y-87567546D01*
X136067669Y-87653796D01*
X136202517Y-87704091D01*
X136262127Y-87710500D01*
X138057872Y-87710499D01*
X138117483Y-87704091D01*
X138252331Y-87653796D01*
X138367546Y-87567546D01*
X138453796Y-87452331D01*
X138458758Y-87439026D01*
X146594526Y-87439026D01*
X146667515Y-87490133D01*
X146873673Y-87586266D01*
X147093397Y-87645141D01*
X147319999Y-87664966D01*
X147546602Y-87645141D01*
X147766326Y-87586266D01*
X147972480Y-87490134D01*
X148045472Y-87439025D01*
X147320001Y-86713553D01*
X147320000Y-86713553D01*
X146594526Y-87439025D01*
X146594526Y-87439026D01*
X138458758Y-87439026D01*
X138504091Y-87317483D01*
X138510500Y-87257873D01*
X138510499Y-86360000D01*
X146015033Y-86360000D01*
X146034858Y-86586602D01*
X146093733Y-86806326D01*
X146189866Y-87012484D01*
X146240972Y-87085471D01*
X146240974Y-87085472D01*
X146966446Y-86360001D01*
X147673553Y-86360001D01*
X148399025Y-87085472D01*
X148450134Y-87012480D01*
X148546266Y-86806326D01*
X148605141Y-86586602D01*
X148624966Y-86360000D01*
X148605141Y-86133397D01*
X148546266Y-85913673D01*
X148450133Y-85707515D01*
X148399025Y-85634526D01*
X147673553Y-86360000D01*
X147673553Y-86360001D01*
X146966446Y-86360001D01*
X146966446Y-86360000D01*
X146240973Y-85634526D01*
X146240973Y-85634527D01*
X146189865Y-85707516D01*
X146093733Y-85913672D01*
X146034858Y-86133397D01*
X146015033Y-86360000D01*
X138510499Y-86360000D01*
X138510499Y-85462128D01*
X138504091Y-85402517D01*
X138458758Y-85280973D01*
X146594526Y-85280973D01*
X147320000Y-86006446D01*
X147320001Y-86006446D01*
X148045472Y-85280974D01*
X148045471Y-85280972D01*
X147972484Y-85229866D01*
X147766326Y-85133733D01*
X147546602Y-85074858D01*
X147319999Y-85055033D01*
X147093397Y-85074858D01*
X146873672Y-85133733D01*
X146667516Y-85229865D01*
X146594527Y-85280973D01*
X146594526Y-85280973D01*
X138458758Y-85280973D01*
X138453796Y-85267669D01*
X138367546Y-85152454D01*
X138252331Y-85066204D01*
X138120399Y-85016996D01*
X138070021Y-84982018D01*
X138042568Y-84927173D01*
X138044757Y-84865880D01*
X138076053Y-84813133D01*
X138171317Y-84717869D01*
X156129500Y-84717869D01*
X156135909Y-84777484D01*
X156149206Y-84813134D01*
X156186204Y-84912331D01*
X156272454Y-85027546D01*
X156387669Y-85113796D01*
X156522517Y-85164091D01*
X156582127Y-85170500D01*
X158377872Y-85170499D01*
X158437483Y-85164091D01*
X158572331Y-85113796D01*
X158687546Y-85027546D01*
X158773796Y-84912331D01*
X158824091Y-84777483D01*
X158830500Y-84717873D01*
X158830499Y-82922128D01*
X158824091Y-82862517D01*
X158773796Y-82727669D01*
X158687546Y-82612454D01*
X158572331Y-82526204D01*
X158440399Y-82476996D01*
X158390021Y-82442018D01*
X158362568Y-82387173D01*
X158364757Y-82325880D01*
X158396053Y-82273133D01*
X158518109Y-82151077D01*
X158653600Y-81957576D01*
X158753430Y-81743492D01*
X158810636Y-81530000D01*
X156149364Y-81530000D01*
X156206569Y-81743492D01*
X156306399Y-81957576D01*
X156441893Y-82151081D01*
X156563946Y-82273134D01*
X156595242Y-82325880D01*
X156597431Y-82387173D01*
X156569978Y-82442018D01*
X156519599Y-82476997D01*
X156387669Y-82526204D01*
X156272454Y-82612454D01*
X156186204Y-82727668D01*
X156135909Y-82862516D01*
X156129500Y-82922130D01*
X156129500Y-84717869D01*
X138171317Y-84717869D01*
X138198109Y-84691077D01*
X138333600Y-84497576D01*
X138433430Y-84283492D01*
X138490636Y-84070000D01*
X135829364Y-84070000D01*
X135886569Y-84283492D01*
X135986399Y-84497576D01*
X136121893Y-84691081D01*
X136243946Y-84813134D01*
X136275242Y-84865880D01*
X136277431Y-84927173D01*
X136249978Y-84982018D01*
X136199599Y-85016997D01*
X136067669Y-85066204D01*
X135952454Y-85152454D01*
X135866204Y-85267668D01*
X135815909Y-85402516D01*
X135809500Y-85462130D01*
X135809500Y-87257869D01*
X133092027Y-87257869D01*
X133118495Y-87231401D01*
X133254035Y-87037830D01*
X133353903Y-86823663D01*
X133415063Y-86595408D01*
X133435659Y-86360000D01*
X133415063Y-86124592D01*
X133353903Y-85896337D01*
X133254035Y-85682171D01*
X133118495Y-85488599D01*
X132996568Y-85366672D01*
X132965273Y-85313927D01*
X132963084Y-85252634D01*
X132990537Y-85197789D01*
X133040916Y-85162810D01*
X133172331Y-85113796D01*
X133287546Y-85027546D01*
X133373796Y-84912331D01*
X133424091Y-84777483D01*
X133430500Y-84717873D01*
X133430499Y-82922128D01*
X133424091Y-82862517D01*
X133373796Y-82727669D01*
X133287546Y-82612454D01*
X133172331Y-82526204D01*
X133037483Y-82475909D01*
X132977873Y-82469500D01*
X132977869Y-82469500D01*
X131182130Y-82469500D01*
X131122515Y-82475909D01*
X130987669Y-82526204D01*
X130872454Y-82612454D01*
X130786204Y-82727668D01*
X130735909Y-82862516D01*
X130729500Y-82922130D01*
X130729500Y-84717869D01*
X130735909Y-84777484D01*
X130749206Y-84813134D01*
X130786204Y-84912331D01*
X130872454Y-85027546D01*
X130987669Y-85113796D01*
X131077383Y-85147257D01*
X131119082Y-85162810D01*
X131169462Y-85197789D01*
X131196915Y-85252634D01*
X131194726Y-85313926D01*
X131163431Y-85366673D01*
X131041503Y-85488601D01*
X130905965Y-85682170D01*
X130806097Y-85896336D01*
X130744936Y-86124592D01*
X130724340Y-86360000D01*
X130744936Y-86595407D01*
X130776593Y-86713553D01*
X130806097Y-86823663D01*
X130905965Y-87037830D01*
X131041505Y-87231401D01*
X131208599Y-87398495D01*
X131394160Y-87528426D01*
X131433024Y-87572743D01*
X131447035Y-87630000D01*
X131433024Y-87687257D01*
X131394159Y-87731575D01*
X131208595Y-87861508D01*
X131041505Y-88028598D01*
X130905965Y-88222170D01*
X130806097Y-88436336D01*
X130744936Y-88664592D01*
X130724340Y-88899999D01*
X130744936Y-89135407D01*
X130789709Y-89302501D01*
X130806097Y-89363663D01*
X130905965Y-89577830D01*
X131041505Y-89771401D01*
X131208599Y-89938495D01*
X131394160Y-90068426D01*
X131433024Y-90112743D01*
X131447035Y-90170000D01*
X131433024Y-90227257D01*
X131394159Y-90271575D01*
X131208595Y-90401508D01*
X131041505Y-90568598D01*
X130905965Y-90762170D01*
X130806097Y-90976336D01*
X130744936Y-91204592D01*
X130724340Y-91440000D01*
X130744936Y-91675407D01*
X130754193Y-91709953D01*
X130806097Y-91903663D01*
X130905965Y-92117830D01*
X131041505Y-92311401D01*
X131208599Y-92478495D01*
X131394160Y-92608426D01*
X131433024Y-92652743D01*
X131447035Y-92710000D01*
X131433024Y-92767257D01*
X131394159Y-92811575D01*
X131208595Y-92941508D01*
X131041505Y-93108598D01*
X130905965Y-93302170D01*
X130806097Y-93516336D01*
X130744936Y-93744592D01*
X130724340Y-93979999D01*
X130744936Y-94215407D01*
X130789709Y-94382501D01*
X130806097Y-94443663D01*
X130905965Y-94657830D01*
X131041505Y-94851401D01*
X131208599Y-95018495D01*
X131394160Y-95148426D01*
X131433024Y-95192743D01*
X131447035Y-95250000D01*
X131433024Y-95307257D01*
X131394158Y-95351575D01*
X131266487Y-95440972D01*
X131208595Y-95481508D01*
X131041505Y-95648598D01*
X130905965Y-95842170D01*
X130806097Y-96056336D01*
X130744936Y-96284592D01*
X130724340Y-96519999D01*
X125815659Y-96519999D01*
X125795063Y-96284592D01*
X125733903Y-96056337D01*
X125634035Y-95842171D01*
X125498495Y-95648599D01*
X125331401Y-95481505D01*
X125145839Y-95351573D01*
X125106975Y-95307257D01*
X125092964Y-95250000D01*
X125106975Y-95192743D01*
X125145839Y-95148426D01*
X125331401Y-95018495D01*
X125498495Y-94851401D01*
X125634035Y-94657830D01*
X125733903Y-94443663D01*
X125795063Y-94215408D01*
X125815659Y-93980000D01*
X125795063Y-93744592D01*
X125733903Y-93516337D01*
X125634035Y-93302171D01*
X125498495Y-93108599D01*
X125331401Y-92941505D01*
X125145839Y-92811573D01*
X125106974Y-92767255D01*
X125092964Y-92709999D01*
X125106975Y-92652742D01*
X125145837Y-92608428D01*
X125331401Y-92478495D01*
X125498495Y-92311401D01*
X125634035Y-92117830D01*
X125733903Y-91903663D01*
X125795063Y-91675408D01*
X125815659Y-91440000D01*
X125795063Y-91204592D01*
X125733903Y-90976337D01*
X125634035Y-90762171D01*
X125498495Y-90568599D01*
X125331401Y-90401505D01*
X125145839Y-90271573D01*
X125106975Y-90227257D01*
X125092964Y-90170000D01*
X125106975Y-90112743D01*
X125145839Y-90068426D01*
X125331401Y-89938495D01*
X125498495Y-89771401D01*
X125634035Y-89577830D01*
X125733903Y-89363663D01*
X125795063Y-89135408D01*
X125815659Y-88900000D01*
X125795063Y-88664592D01*
X125733903Y-88436337D01*
X125634035Y-88222171D01*
X125498495Y-88028599D01*
X125331401Y-87861505D01*
X125145839Y-87731573D01*
X125106975Y-87687257D01*
X125092964Y-87630000D01*
X125106975Y-87572743D01*
X125145839Y-87528426D01*
X125331401Y-87398495D01*
X125498495Y-87231401D01*
X125634035Y-87037830D01*
X125733903Y-86823663D01*
X125795063Y-86595408D01*
X125815659Y-86360000D01*
X125795063Y-86124592D01*
X125733903Y-85896337D01*
X125634035Y-85682171D01*
X125498495Y-85488599D01*
X125331401Y-85321505D01*
X125145839Y-85191573D01*
X125106975Y-85147257D01*
X125092964Y-85090000D01*
X125106975Y-85032743D01*
X125145839Y-84988426D01*
X125331401Y-84858495D01*
X125498495Y-84691401D01*
X125634035Y-84497830D01*
X125733903Y-84283663D01*
X125795063Y-84055408D01*
X125815659Y-83820000D01*
X125795063Y-83584592D01*
X125733903Y-83356337D01*
X125634035Y-83142171D01*
X125498495Y-82948599D01*
X125331401Y-82781505D01*
X125145839Y-82651573D01*
X125106975Y-82607257D01*
X125092964Y-82550000D01*
X125106975Y-82492743D01*
X125145839Y-82448426D01*
X125331401Y-82318495D01*
X125498495Y-82151401D01*
X125634035Y-81957830D01*
X125733903Y-81743663D01*
X125795063Y-81515408D01*
X125815659Y-81280000D01*
X135804340Y-81280000D01*
X135824936Y-81515407D01*
X135844036Y-81586689D01*
X135886097Y-81743663D01*
X135985965Y-81957830D01*
X136121505Y-82151401D01*
X136288599Y-82318495D01*
X136474597Y-82448732D01*
X136513460Y-82493048D01*
X136527471Y-82550305D01*
X136513461Y-82607561D01*
X136474595Y-82651880D01*
X136288919Y-82781892D01*
X136121890Y-82948921D01*
X135986400Y-83142421D01*
X135886569Y-83356507D01*
X135829364Y-83569999D01*
X135829364Y-83570000D01*
X138490636Y-83570000D01*
X138490635Y-83569999D01*
X138433430Y-83356507D01*
X138333599Y-83142421D01*
X138198109Y-82948921D01*
X138031081Y-82781893D01*
X137845404Y-82651880D01*
X137806539Y-82607562D01*
X137792528Y-82550305D01*
X137806539Y-82493048D01*
X137845402Y-82448732D01*
X138031401Y-82318495D01*
X138198495Y-82151401D01*
X138334035Y-81957830D01*
X138433903Y-81743663D01*
X138495063Y-81515408D01*
X138508660Y-81359999D01*
X146014531Y-81359999D01*
X146034364Y-81586689D01*
X146093261Y-81806497D01*
X146189432Y-82012735D01*
X146319953Y-82199140D01*
X146480859Y-82360046D01*
X146667264Y-82490567D01*
X146667265Y-82490567D01*
X146667266Y-82490568D01*
X146873504Y-82586739D01*
X147093308Y-82645635D01*
X147320000Y-82665468D01*
X147546692Y-82645635D01*
X147766496Y-82586739D01*
X147972734Y-82490568D01*
X148159139Y-82360047D01*
X148320047Y-82199139D01*
X148450568Y-82012734D01*
X148546739Y-81806496D01*
X148605635Y-81586692D01*
X148625468Y-81360000D01*
X148605635Y-81133308D01*
X148577954Y-81030000D01*
X156149364Y-81030000D01*
X157230000Y-81030000D01*
X157230000Y-79949364D01*
X157730000Y-79949364D01*
X157730000Y-81030000D01*
X158810636Y-81030000D01*
X158810635Y-81029999D01*
X158753430Y-80816507D01*
X158653599Y-80602421D01*
X158518109Y-80408921D01*
X158351081Y-80241893D01*
X158157576Y-80106399D01*
X157943492Y-80006569D01*
X157730000Y-79949364D01*
X157230000Y-79949364D01*
X157229999Y-79949364D01*
X157016507Y-80006569D01*
X156802421Y-80106400D01*
X156608921Y-80241890D01*
X156441890Y-80408921D01*
X156306400Y-80602421D01*
X156206569Y-80816507D01*
X156149364Y-81029999D01*
X156149364Y-81030000D01*
X148577954Y-81030000D01*
X148546739Y-80913504D01*
X148450568Y-80707266D01*
X148377155Y-80602421D01*
X148320046Y-80520859D01*
X148159140Y-80359953D01*
X147972735Y-80229432D01*
X147766497Y-80133261D01*
X147546689Y-80074364D01*
X147320000Y-80054531D01*
X147093310Y-80074364D01*
X146873502Y-80133261D01*
X146667264Y-80229432D01*
X146480859Y-80359953D01*
X146319953Y-80520859D01*
X146189432Y-80707264D01*
X146093261Y-80913502D01*
X146034364Y-81133310D01*
X146014531Y-81359999D01*
X138508660Y-81359999D01*
X138515659Y-81280000D01*
X138495063Y-81044592D01*
X138433903Y-80816337D01*
X138334035Y-80602171D01*
X138198495Y-80408599D01*
X138031401Y-80241505D01*
X137837830Y-80105965D01*
X137623663Y-80006097D01*
X137562501Y-79989709D01*
X137395407Y-79944936D01*
X137159999Y-79924340D01*
X136924592Y-79944936D01*
X136696336Y-80006097D01*
X136482170Y-80105965D01*
X136288598Y-80241505D01*
X136121505Y-80408598D01*
X135985965Y-80602170D01*
X135886097Y-80816336D01*
X135824936Y-81044592D01*
X135804340Y-81280000D01*
X125815659Y-81280000D01*
X125795063Y-81044592D01*
X125733903Y-80816337D01*
X125634035Y-80602171D01*
X125498495Y-80408599D01*
X125376569Y-80286673D01*
X125345273Y-80233927D01*
X125343084Y-80172634D01*
X125370537Y-80117789D01*
X125420916Y-80082810D01*
X125552331Y-80033796D01*
X125667546Y-79947546D01*
X125753796Y-79832331D01*
X125804091Y-79697483D01*
X125810500Y-79637873D01*
X125810499Y-77842128D01*
X125804091Y-77782517D01*
X125753796Y-77647669D01*
X125667546Y-77532454D01*
X125552331Y-77446204D01*
X125417483Y-77395909D01*
X125357873Y-77389500D01*
X125357869Y-77389500D01*
X123562130Y-77389500D01*
X123502515Y-77395909D01*
X123367669Y-77446204D01*
X123252454Y-77532454D01*
X123166204Y-77647668D01*
X123115909Y-77782516D01*
X123109500Y-77842130D01*
X123109500Y-79637869D01*
X123115897Y-79697375D01*
X123115909Y-79697483D01*
X123166204Y-79832331D01*
X123252454Y-79947546D01*
X123367669Y-80033796D01*
X123476438Y-80074364D01*
X123499082Y-80082810D01*
X123549462Y-80117789D01*
X123576915Y-80172634D01*
X123574726Y-80233926D01*
X123543431Y-80286673D01*
X123421503Y-80408601D01*
X123285965Y-80602170D01*
X123186097Y-80816336D01*
X123124936Y-81044592D01*
X123104340Y-81279999D01*
X123124936Y-81515407D01*
X123144036Y-81586689D01*
X123186097Y-81743663D01*
X123285965Y-81957830D01*
X123421505Y-82151401D01*
X123588599Y-82318495D01*
X123774160Y-82448426D01*
X123813024Y-82492743D01*
X123827035Y-82550000D01*
X123813024Y-82607257D01*
X123774159Y-82651575D01*
X123588595Y-82781508D01*
X123421505Y-82948598D01*
X123285965Y-83142170D01*
X123186097Y-83356336D01*
X123124936Y-83584592D01*
X123104340Y-83820000D01*
X123124936Y-84055407D01*
X123169709Y-84222501D01*
X123186097Y-84283663D01*
X123285965Y-84497830D01*
X123421505Y-84691401D01*
X123588599Y-84858495D01*
X123774160Y-84988426D01*
X123813024Y-85032743D01*
X123827035Y-85090000D01*
X123813024Y-85147257D01*
X123774159Y-85191575D01*
X123743738Y-85212875D01*
X123646487Y-85280972D01*
X123588595Y-85321508D01*
X123421505Y-85488598D01*
X123285965Y-85682170D01*
X123186097Y-85896336D01*
X123124936Y-86124592D01*
X123104340Y-86360000D01*
X123124936Y-86595407D01*
X123156593Y-86713553D01*
X123186097Y-86823663D01*
X123285965Y-87037830D01*
X123421505Y-87231401D01*
X123588599Y-87398495D01*
X123774160Y-87528426D01*
X123813024Y-87572743D01*
X123827035Y-87630000D01*
X123813024Y-87687257D01*
X123774159Y-87731575D01*
X123588595Y-87861508D01*
X123421505Y-88028598D01*
X123285965Y-88222170D01*
X123186097Y-88436336D01*
X123124936Y-88664592D01*
X123104340Y-88899999D01*
X123124936Y-89135407D01*
X123169709Y-89302501D01*
X123186097Y-89363663D01*
X123285965Y-89577830D01*
X123421505Y-89771401D01*
X123588599Y-89938495D01*
X123774160Y-90068426D01*
X123813024Y-90112743D01*
X123827035Y-90170000D01*
X123813024Y-90227257D01*
X123774159Y-90271575D01*
X123588595Y-90401508D01*
X123421505Y-90568598D01*
X123285965Y-90762170D01*
X123186097Y-90976336D01*
X123124936Y-91204592D01*
X123104340Y-91440000D01*
X123124936Y-91675407D01*
X123134193Y-91709953D01*
X123186097Y-91903663D01*
X123285965Y-92117830D01*
X123421505Y-92311401D01*
X123588599Y-92478495D01*
X123774160Y-92608426D01*
X123813024Y-92652743D01*
X123827035Y-92710000D01*
X123813024Y-92767257D01*
X123774159Y-92811575D01*
X123588595Y-92941508D01*
X123421505Y-93108598D01*
X123285965Y-93302170D01*
X123186097Y-93516336D01*
X123124936Y-93744592D01*
X123104340Y-93979999D01*
X123124936Y-94215407D01*
X123169709Y-94382501D01*
X123186097Y-94443663D01*
X123285965Y-94657830D01*
X123421505Y-94851401D01*
X123588599Y-95018495D01*
X123774160Y-95148426D01*
X123813024Y-95192743D01*
X123827035Y-95250000D01*
X123813024Y-95307257D01*
X123774158Y-95351575D01*
X123646487Y-95440972D01*
X123588595Y-95481508D01*
X123421505Y-95648598D01*
X123285965Y-95842170D01*
X123186097Y-96056336D01*
X123124936Y-96284592D01*
X123104340Y-96520000D01*
X123124936Y-96755407D01*
X123156593Y-96873553D01*
X123186097Y-96983663D01*
X123285965Y-97197830D01*
X123421505Y-97391401D01*
X123588599Y-97558495D01*
X123774160Y-97688426D01*
X123813024Y-97732743D01*
X123827035Y-97790000D01*
X123813024Y-97847257D01*
X123774159Y-97891575D01*
X123588595Y-98021508D01*
X123421505Y-98188598D01*
X123285965Y-98382170D01*
X123186097Y-98596336D01*
X123124936Y-98824592D01*
X123104340Y-99059999D01*
X123124936Y-99295407D01*
X123169709Y-99462502D01*
X123186097Y-99523663D01*
X123285965Y-99737830D01*
X123421505Y-99931401D01*
X123588599Y-100098495D01*
X123774160Y-100228426D01*
X123813024Y-100272743D01*
X123827035Y-100330000D01*
X123813024Y-100387257D01*
X123774159Y-100431575D01*
X123588595Y-100561508D01*
X123421505Y-100728598D01*
X123285965Y-100922170D01*
X123186097Y-101136336D01*
X123124936Y-101364592D01*
X123104340Y-101600000D01*
X123124936Y-101835407D01*
X123169709Y-102002501D01*
X123186097Y-102063663D01*
X123285965Y-102277830D01*
X123421505Y-102471401D01*
X123588599Y-102638495D01*
X123774160Y-102768426D01*
X123813024Y-102812743D01*
X123827035Y-102870000D01*
X123813024Y-102927257D01*
X123774159Y-102971575D01*
X123588595Y-103101508D01*
X123421505Y-103268598D01*
X123285965Y-103462170D01*
X123186097Y-103676336D01*
X123124936Y-103904592D01*
X123104340Y-104140000D01*
X123124936Y-104375407D01*
X123134193Y-104409953D01*
X123186097Y-104603663D01*
X123285965Y-104817830D01*
X123421505Y-105011401D01*
X123588599Y-105178495D01*
X123774160Y-105308426D01*
X123813024Y-105352743D01*
X123827035Y-105410000D01*
X123813024Y-105467257D01*
X123774159Y-105511575D01*
X123588595Y-105641508D01*
X123421505Y-105808598D01*
X123285965Y-106002170D01*
X123186097Y-106216336D01*
X123124936Y-106444592D01*
X123104340Y-106680000D01*
X123124936Y-106915407D01*
X123169709Y-107082502D01*
X123186097Y-107143663D01*
X123285965Y-107357830D01*
X123421505Y-107551401D01*
X123588599Y-107718495D01*
X123774160Y-107848426D01*
X123813024Y-107892743D01*
X123827035Y-107950000D01*
X123813024Y-108007257D01*
X123774159Y-108051575D01*
X123588595Y-108181508D01*
X123421505Y-108348598D01*
X123285965Y-108542170D01*
X123186097Y-108756336D01*
X123124936Y-108984592D01*
X123104340Y-109220000D01*
X123124936Y-109455407D01*
X123134297Y-109490341D01*
X123186097Y-109683663D01*
X123285965Y-109897830D01*
X123421505Y-110091401D01*
X123588599Y-110258495D01*
X123774160Y-110388426D01*
X123813024Y-110432743D01*
X123827035Y-110490000D01*
X123813024Y-110547257D01*
X123774159Y-110591575D01*
X123588595Y-110721508D01*
X123421505Y-110888598D01*
X123285965Y-111082170D01*
X123186097Y-111296336D01*
X123124936Y-111524592D01*
X123104340Y-111759999D01*
X123124936Y-111995407D01*
X123169709Y-112162501D01*
X123186097Y-112223663D01*
X123285965Y-112437830D01*
X123421505Y-112631401D01*
X123588599Y-112798495D01*
X123774160Y-112928426D01*
X123813024Y-112972743D01*
X123827035Y-113030000D01*
X123813024Y-113087257D01*
X123774159Y-113131575D01*
X123588595Y-113261508D01*
X123421505Y-113428598D01*
X123285965Y-113622170D01*
X123186097Y-113836336D01*
X123124936Y-114064592D01*
X123104340Y-114300000D01*
X123124936Y-114535407D01*
X123134193Y-114569953D01*
X123186097Y-114763663D01*
X123285965Y-114977830D01*
X123421505Y-115171401D01*
X123588599Y-115338495D01*
X123774160Y-115468426D01*
X123813024Y-115512743D01*
X123827035Y-115570000D01*
X123813024Y-115627257D01*
X123774159Y-115671575D01*
X123588595Y-115801508D01*
X123421505Y-115968598D01*
X123285965Y-116162170D01*
X123186097Y-116376336D01*
X123124936Y-116604592D01*
X123104340Y-116839999D01*
X123124936Y-117075407D01*
X123167311Y-117233553D01*
X123186097Y-117303663D01*
X123285965Y-117517830D01*
X123421505Y-117711401D01*
X123588599Y-117878495D01*
X123774160Y-118008426D01*
X123813024Y-118052743D01*
X123827035Y-118110000D01*
X123813024Y-118167257D01*
X123774159Y-118211575D01*
X123588595Y-118341508D01*
X123421505Y-118508598D01*
X123285965Y-118702170D01*
X123186097Y-118916336D01*
X123124936Y-119144592D01*
X123104340Y-119380000D01*
X123124936Y-119615407D01*
X123128758Y-119629670D01*
X123186097Y-119843663D01*
X123285965Y-120057830D01*
X123421505Y-120251401D01*
X123588599Y-120418495D01*
X123774160Y-120548426D01*
X123813024Y-120592743D01*
X123827035Y-120650000D01*
X123813024Y-120707257D01*
X123774159Y-120751575D01*
X123588595Y-120881508D01*
X123421505Y-121048598D01*
X123285965Y-121242170D01*
X123186097Y-121456336D01*
X123124936Y-121684592D01*
X123104340Y-121919999D01*
X123124936Y-122155407D01*
X123134193Y-122189953D01*
X123186097Y-122383663D01*
X123285965Y-122597830D01*
X123421505Y-122791401D01*
X123588599Y-122958495D01*
X123774160Y-123088426D01*
X123813024Y-123132743D01*
X123827035Y-123190000D01*
X123813024Y-123247257D01*
X123774159Y-123291575D01*
X123588595Y-123421508D01*
X123421505Y-123588598D01*
X123285965Y-123782170D01*
X123186097Y-123996336D01*
X123124936Y-124224592D01*
X123104340Y-124460000D01*
X123124936Y-124695407D01*
X123169709Y-124862501D01*
X123186097Y-124923663D01*
X123285965Y-125137830D01*
X123421505Y-125331401D01*
X123588599Y-125498495D01*
X123774160Y-125628426D01*
X123813024Y-125672743D01*
X123827035Y-125730000D01*
X123813024Y-125787257D01*
X123774159Y-125831575D01*
X123588595Y-125961508D01*
X123421505Y-126128598D01*
X123285965Y-126322170D01*
X123186097Y-126536336D01*
X123124936Y-126764592D01*
X123104340Y-126999999D01*
X105495659Y-126999999D01*
X105475063Y-126764592D01*
X105413903Y-126536337D01*
X105314035Y-126322171D01*
X105178495Y-126128599D01*
X105011401Y-125961505D01*
X104825839Y-125831573D01*
X104786975Y-125787257D01*
X104772964Y-125730000D01*
X104786975Y-125672743D01*
X104825839Y-125628426D01*
X105011401Y-125498495D01*
X105178495Y-125331401D01*
X105314035Y-125137830D01*
X105413903Y-124923663D01*
X105475063Y-124695408D01*
X105495659Y-124460000D01*
X105475063Y-124224592D01*
X105413903Y-123996337D01*
X105314035Y-123782171D01*
X105178495Y-123588599D01*
X105011401Y-123421505D01*
X104825839Y-123291573D01*
X104786975Y-123247257D01*
X104772964Y-123190000D01*
X104786975Y-123132743D01*
X104825839Y-123088426D01*
X105011401Y-122958495D01*
X105178495Y-122791401D01*
X105314035Y-122597830D01*
X105413903Y-122383663D01*
X105475063Y-122155408D01*
X105495659Y-121920000D01*
X105475063Y-121684592D01*
X105413903Y-121456337D01*
X105314035Y-121242171D01*
X105178495Y-121048599D01*
X105011401Y-120881505D01*
X104825839Y-120751573D01*
X104786974Y-120707255D01*
X104772964Y-120649999D01*
X104786975Y-120592742D01*
X104825837Y-120548428D01*
X105011401Y-120418495D01*
X105178495Y-120251401D01*
X105314035Y-120057830D01*
X105413903Y-119843663D01*
X105475063Y-119615408D01*
X105495659Y-119380000D01*
X105475063Y-119144592D01*
X105413903Y-118916337D01*
X105314035Y-118702171D01*
X105178495Y-118508599D01*
X105011401Y-118341505D01*
X104825839Y-118211573D01*
X104786974Y-118167255D01*
X104772964Y-118109999D01*
X104786975Y-118052742D01*
X104825837Y-118008428D01*
X105011401Y-117878495D01*
X105178495Y-117711401D01*
X105314035Y-117517830D01*
X105413903Y-117303663D01*
X105475063Y-117075408D01*
X105495659Y-116840000D01*
X105475063Y-116604592D01*
X105413903Y-116376337D01*
X105314035Y-116162171D01*
X105178495Y-115968599D01*
X105011401Y-115801505D01*
X104825839Y-115671573D01*
X104786975Y-115627257D01*
X104772964Y-115570000D01*
X104786975Y-115512743D01*
X104825839Y-115468426D01*
X105011401Y-115338495D01*
X105178495Y-115171401D01*
X105314035Y-114977830D01*
X105413903Y-114763663D01*
X105475063Y-114535408D01*
X105495659Y-114300000D01*
X105475063Y-114064592D01*
X105413903Y-113836337D01*
X105314035Y-113622171D01*
X105178495Y-113428599D01*
X105011401Y-113261505D01*
X104825839Y-113131573D01*
X104786975Y-113087257D01*
X104772964Y-113030000D01*
X104786975Y-112972743D01*
X104825839Y-112928426D01*
X105011401Y-112798495D01*
X105178495Y-112631401D01*
X105314035Y-112437830D01*
X105413903Y-112223663D01*
X105475063Y-111995408D01*
X105495659Y-111760000D01*
X105475063Y-111524592D01*
X105413903Y-111296337D01*
X105314035Y-111082171D01*
X105178495Y-110888599D01*
X105011401Y-110721505D01*
X104825839Y-110591573D01*
X104786975Y-110547257D01*
X104772964Y-110490000D01*
X104786975Y-110432743D01*
X104825839Y-110388426D01*
X105011401Y-110258495D01*
X105178495Y-110091401D01*
X105314035Y-109897830D01*
X105413903Y-109683663D01*
X105475063Y-109455408D01*
X105495659Y-109220000D01*
X105475063Y-108984592D01*
X105413903Y-108756337D01*
X105314035Y-108542171D01*
X105178495Y-108348599D01*
X105011401Y-108181505D01*
X104825839Y-108051573D01*
X104786975Y-108007257D01*
X104772964Y-107950000D01*
X104786975Y-107892743D01*
X104825839Y-107848426D01*
X105011401Y-107718495D01*
X105178495Y-107551401D01*
X105314035Y-107357830D01*
X105413903Y-107143663D01*
X105475063Y-106915408D01*
X105495659Y-106680000D01*
X105475063Y-106444592D01*
X105413903Y-106216337D01*
X105314035Y-106002171D01*
X105178495Y-105808599D01*
X105011401Y-105641505D01*
X104825839Y-105511573D01*
X104786975Y-105467257D01*
X104772964Y-105410000D01*
X104786975Y-105352743D01*
X104825839Y-105308426D01*
X105011401Y-105178495D01*
X105178495Y-105011401D01*
X105314035Y-104817830D01*
X105413903Y-104603663D01*
X105475063Y-104375408D01*
X105495659Y-104140000D01*
X105475063Y-103904592D01*
X105413903Y-103676337D01*
X105314035Y-103462171D01*
X105178495Y-103268599D01*
X105011401Y-103101505D01*
X104825839Y-102971573D01*
X104786974Y-102927255D01*
X104772964Y-102869999D01*
X104786975Y-102812742D01*
X104825837Y-102768428D01*
X105011401Y-102638495D01*
X105178495Y-102471401D01*
X105314035Y-102277830D01*
X105413903Y-102063663D01*
X105475063Y-101835408D01*
X105495659Y-101600000D01*
X105475063Y-101364592D01*
X105413903Y-101136337D01*
X105314035Y-100922171D01*
X105178495Y-100728599D01*
X105011401Y-100561505D01*
X104825839Y-100431573D01*
X104786975Y-100387257D01*
X104772964Y-100330000D01*
X104786975Y-100272743D01*
X104825839Y-100228426D01*
X105011401Y-100098495D01*
X105178495Y-99931401D01*
X105314035Y-99737830D01*
X105413903Y-99523663D01*
X105475063Y-99295408D01*
X105495659Y-99060000D01*
X105475063Y-98824592D01*
X105413903Y-98596337D01*
X105314035Y-98382171D01*
X105178495Y-98188599D01*
X105011401Y-98021505D01*
X104825839Y-97891573D01*
X104786976Y-97847257D01*
X104772965Y-97790000D01*
X104786976Y-97732743D01*
X104825839Y-97688426D01*
X105011401Y-97558495D01*
X105178495Y-97391401D01*
X105314035Y-97197830D01*
X105413903Y-96983663D01*
X105475063Y-96755408D01*
X105495659Y-96520000D01*
X105475063Y-96284592D01*
X105413903Y-96056337D01*
X105314035Y-95842171D01*
X105178495Y-95648599D01*
X105011401Y-95481505D01*
X104825839Y-95351573D01*
X104786975Y-95307257D01*
X104772964Y-95250000D01*
X104786975Y-95192743D01*
X104825839Y-95148426D01*
X105011401Y-95018495D01*
X105178495Y-94851401D01*
X105314035Y-94657830D01*
X105413903Y-94443663D01*
X105475063Y-94215408D01*
X105495659Y-93980000D01*
X105475063Y-93744592D01*
X105413903Y-93516337D01*
X105314035Y-93302171D01*
X105178495Y-93108599D01*
X105011401Y-92941505D01*
X104825839Y-92811573D01*
X104786974Y-92767255D01*
X104772964Y-92709999D01*
X104786975Y-92652742D01*
X104825837Y-92608428D01*
X105011401Y-92478495D01*
X105178495Y-92311401D01*
X105314035Y-92117830D01*
X105413903Y-91903663D01*
X105475063Y-91675408D01*
X105495659Y-91440000D01*
X105475063Y-91204592D01*
X105413903Y-90976337D01*
X105314035Y-90762171D01*
X105178495Y-90568599D01*
X105011401Y-90401505D01*
X104825839Y-90271573D01*
X104786975Y-90227257D01*
X104772964Y-90170000D01*
X104786975Y-90112743D01*
X104825839Y-90068426D01*
X105011401Y-89938495D01*
X105178495Y-89771401D01*
X105314035Y-89577830D01*
X105413903Y-89363663D01*
X105475063Y-89135408D01*
X105495659Y-88900000D01*
X105475063Y-88664592D01*
X105413903Y-88436337D01*
X105314035Y-88222171D01*
X105178495Y-88028599D01*
X105011401Y-87861505D01*
X104825839Y-87731573D01*
X104786975Y-87687257D01*
X104772964Y-87630000D01*
X104786975Y-87572743D01*
X104825839Y-87528426D01*
X105011401Y-87398495D01*
X105178495Y-87231401D01*
X105314035Y-87037830D01*
X105413903Y-86823663D01*
X105475063Y-86595408D01*
X105495659Y-86360000D01*
X105475063Y-86124592D01*
X105413903Y-85896337D01*
X105314035Y-85682171D01*
X105178495Y-85488599D01*
X105011401Y-85321505D01*
X104825839Y-85191573D01*
X104786975Y-85147257D01*
X104772964Y-85090000D01*
X104786975Y-85032743D01*
X104825839Y-84988426D01*
X105011401Y-84858495D01*
X105178495Y-84691401D01*
X105314035Y-84497830D01*
X105413903Y-84283663D01*
X105475063Y-84055408D01*
X105495659Y-83820000D01*
X105475063Y-83584592D01*
X105413903Y-83356337D01*
X105314035Y-83142171D01*
X105178495Y-82948599D01*
X105011401Y-82781505D01*
X104825839Y-82651573D01*
X104786975Y-82607257D01*
X104772964Y-82550000D01*
X104786975Y-82492743D01*
X104825839Y-82448426D01*
X105011401Y-82318495D01*
X105178495Y-82151401D01*
X105314035Y-81957830D01*
X105413903Y-81743663D01*
X105475063Y-81515408D01*
X105495659Y-81280000D01*
X105475063Y-81044592D01*
X105413903Y-80816337D01*
X105314035Y-80602171D01*
X105178495Y-80408599D01*
X105056180Y-80286284D01*
X105024885Y-80233539D01*
X105022696Y-80172246D01*
X105050149Y-80117401D01*
X105100528Y-80082422D01*
X105232089Y-80033352D01*
X105347188Y-79947188D01*
X105433352Y-79832089D01*
X105483597Y-79697375D01*
X105490000Y-79637824D01*
X105490000Y-78990000D01*
X102790000Y-78990000D01*
X102790000Y-79637824D01*
X102796402Y-79697375D01*
X102846647Y-79832089D01*
X102932811Y-79947188D01*
X103047911Y-80033352D01*
X103179471Y-80082422D01*
X103229850Y-80117401D01*
X103257303Y-80172246D01*
X103255114Y-80233539D01*
X103223819Y-80286285D01*
X103101503Y-80408601D01*
X102965965Y-80602170D01*
X102866097Y-80816336D01*
X102804936Y-81044592D01*
X102784340Y-81279999D01*
X102804936Y-81515407D01*
X102824036Y-81586689D01*
X102866097Y-81743663D01*
X102965965Y-81957830D01*
X103101505Y-82151401D01*
X103268599Y-82318495D01*
X103454160Y-82448426D01*
X103493024Y-82492743D01*
X103507035Y-82550000D01*
X103493024Y-82607257D01*
X103454159Y-82651575D01*
X103268595Y-82781508D01*
X103101505Y-82948598D01*
X102965965Y-83142170D01*
X102866097Y-83356336D01*
X102804936Y-83584592D01*
X102784340Y-83820000D01*
X102804936Y-84055407D01*
X102849709Y-84222501D01*
X102866097Y-84283663D01*
X102965965Y-84497830D01*
X103101505Y-84691401D01*
X103268599Y-84858495D01*
X103454160Y-84988426D01*
X103493024Y-85032743D01*
X103507035Y-85090000D01*
X103493024Y-85147257D01*
X103454159Y-85191575D01*
X103423738Y-85212875D01*
X103326487Y-85280972D01*
X103268595Y-85321508D01*
X103101505Y-85488598D01*
X102965965Y-85682170D01*
X102866097Y-85896336D01*
X102804936Y-86124592D01*
X102784340Y-86360000D01*
X102804936Y-86595407D01*
X102836593Y-86713553D01*
X102866097Y-86823663D01*
X102965965Y-87037830D01*
X103101505Y-87231401D01*
X103268599Y-87398495D01*
X103454160Y-87528426D01*
X103493024Y-87572743D01*
X103507035Y-87630000D01*
X103493024Y-87687257D01*
X103454159Y-87731575D01*
X103268595Y-87861508D01*
X103101505Y-88028598D01*
X102965965Y-88222170D01*
X102866097Y-88436336D01*
X102804936Y-88664592D01*
X102784340Y-88899999D01*
X102804936Y-89135407D01*
X102849709Y-89302501D01*
X102866097Y-89363663D01*
X102965965Y-89577830D01*
X103101505Y-89771401D01*
X103268599Y-89938495D01*
X103454160Y-90068426D01*
X103493024Y-90112743D01*
X103507035Y-90170000D01*
X103493024Y-90227257D01*
X103454159Y-90271575D01*
X103268595Y-90401508D01*
X103101505Y-90568598D01*
X102965965Y-90762170D01*
X102866097Y-90976336D01*
X102804936Y-91204592D01*
X102784340Y-91440000D01*
X102804936Y-91675407D01*
X102814193Y-91709953D01*
X102866097Y-91903663D01*
X102965965Y-92117830D01*
X103101505Y-92311401D01*
X103268599Y-92478495D01*
X103454160Y-92608426D01*
X103493024Y-92652743D01*
X103507035Y-92710000D01*
X103493024Y-92767257D01*
X103454159Y-92811575D01*
X103268595Y-92941508D01*
X103101505Y-93108598D01*
X102965965Y-93302170D01*
X102866097Y-93516336D01*
X102804936Y-93744592D01*
X102784340Y-93979999D01*
X102804936Y-94215407D01*
X102849709Y-94382501D01*
X102866097Y-94443663D01*
X102965965Y-94657830D01*
X103101505Y-94851401D01*
X103268599Y-95018495D01*
X103454160Y-95148426D01*
X103493024Y-95192743D01*
X103507035Y-95250000D01*
X103493024Y-95307257D01*
X103454158Y-95351575D01*
X103326487Y-95440972D01*
X103268595Y-95481508D01*
X103101505Y-95648598D01*
X102965965Y-95842170D01*
X102866097Y-96056336D01*
X102804936Y-96284592D01*
X102784340Y-96520000D01*
X102804936Y-96755407D01*
X102836593Y-96873553D01*
X102866097Y-96983663D01*
X102965965Y-97197830D01*
X103101505Y-97391401D01*
X103268599Y-97558495D01*
X103454160Y-97688426D01*
X103493024Y-97732743D01*
X103507035Y-97790000D01*
X103493024Y-97847257D01*
X103454159Y-97891575D01*
X103268595Y-98021508D01*
X103101505Y-98188598D01*
X102965965Y-98382170D01*
X102866097Y-98596336D01*
X102804936Y-98824592D01*
X102784340Y-99059999D01*
X102804936Y-99295407D01*
X102849709Y-99462502D01*
X102866097Y-99523663D01*
X102965965Y-99737830D01*
X103101505Y-99931401D01*
X103268599Y-100098495D01*
X103454160Y-100228426D01*
X103493024Y-100272743D01*
X103507035Y-100330000D01*
X103493024Y-100387257D01*
X103454159Y-100431575D01*
X103268595Y-100561508D01*
X103101505Y-100728598D01*
X102965965Y-100922170D01*
X102866097Y-101136336D01*
X102804936Y-101364592D01*
X102784340Y-101600000D01*
X102804936Y-101835407D01*
X102849709Y-102002501D01*
X102866097Y-102063663D01*
X102965965Y-102277830D01*
X103101505Y-102471401D01*
X103268599Y-102638495D01*
X103454160Y-102768426D01*
X103493024Y-102812743D01*
X103507035Y-102870000D01*
X103493024Y-102927257D01*
X103454159Y-102971575D01*
X103268595Y-103101508D01*
X103101505Y-103268598D01*
X102965965Y-103462170D01*
X102866097Y-103676336D01*
X102804936Y-103904592D01*
X102784340Y-104140000D01*
X102804936Y-104375407D01*
X102814193Y-104409953D01*
X102866097Y-104603663D01*
X102965965Y-104817830D01*
X103101505Y-105011401D01*
X103268599Y-105178495D01*
X103454160Y-105308426D01*
X103493024Y-105352743D01*
X103507035Y-105410000D01*
X103493024Y-105467257D01*
X103454159Y-105511575D01*
X103268595Y-105641508D01*
X103101505Y-105808598D01*
X102965965Y-106002170D01*
X102866097Y-106216336D01*
X102804936Y-106444592D01*
X102784340Y-106680000D01*
X102804936Y-106915407D01*
X102849709Y-107082502D01*
X102866097Y-107143663D01*
X102965965Y-107357830D01*
X103101505Y-107551401D01*
X103268599Y-107718495D01*
X103454160Y-107848426D01*
X103493024Y-107892743D01*
X103507035Y-107950000D01*
X103493024Y-108007257D01*
X103454159Y-108051575D01*
X103268595Y-108181508D01*
X103101505Y-108348598D01*
X102965965Y-108542170D01*
X102866097Y-108756336D01*
X102804936Y-108984592D01*
X102784340Y-109220000D01*
X102804936Y-109455407D01*
X102814297Y-109490341D01*
X102866097Y-109683663D01*
X102965965Y-109897830D01*
X103101505Y-110091401D01*
X103268599Y-110258495D01*
X103454160Y-110388426D01*
X103493024Y-110432743D01*
X103507035Y-110490000D01*
X103493024Y-110547257D01*
X103454159Y-110591575D01*
X103268595Y-110721508D01*
X103101505Y-110888598D01*
X102965965Y-111082170D01*
X102866097Y-111296336D01*
X102804936Y-111524592D01*
X102784340Y-111759999D01*
X102804936Y-111995407D01*
X102849709Y-112162501D01*
X102866097Y-112223663D01*
X102965965Y-112437830D01*
X103101505Y-112631401D01*
X103268599Y-112798495D01*
X103454160Y-112928426D01*
X103493024Y-112972743D01*
X103507035Y-113030000D01*
X103493024Y-113087257D01*
X103454159Y-113131575D01*
X103268595Y-113261508D01*
X103101505Y-113428598D01*
X102965965Y-113622170D01*
X102866097Y-113836336D01*
X102804936Y-114064592D01*
X102784340Y-114300000D01*
X102804936Y-114535407D01*
X102814193Y-114569953D01*
X102866097Y-114763663D01*
X102965965Y-114977830D01*
X103101505Y-115171401D01*
X103268599Y-115338495D01*
X103454160Y-115468426D01*
X103493024Y-115512743D01*
X103507035Y-115570000D01*
X103493024Y-115627257D01*
X103454159Y-115671575D01*
X103268595Y-115801508D01*
X103101505Y-115968598D01*
X102965965Y-116162170D01*
X102866097Y-116376336D01*
X102804936Y-116604592D01*
X102784340Y-116839999D01*
X102804936Y-117075407D01*
X102847311Y-117233553D01*
X102866097Y-117303663D01*
X102965965Y-117517830D01*
X103101505Y-117711401D01*
X103268599Y-117878495D01*
X103454160Y-118008426D01*
X103493024Y-118052743D01*
X103507035Y-118110000D01*
X103493024Y-118167257D01*
X103454159Y-118211575D01*
X103268595Y-118341508D01*
X103101505Y-118508598D01*
X102965965Y-118702170D01*
X102866097Y-118916336D01*
X102804936Y-119144592D01*
X102784340Y-119380000D01*
X102804936Y-119615407D01*
X102808758Y-119629670D01*
X102866097Y-119843663D01*
X102965965Y-120057830D01*
X103101505Y-120251401D01*
X103268599Y-120418495D01*
X103454160Y-120548426D01*
X103493024Y-120592743D01*
X103507035Y-120650000D01*
X103493024Y-120707257D01*
X103454159Y-120751575D01*
X103268595Y-120881508D01*
X103101505Y-121048598D01*
X102965965Y-121242170D01*
X102866097Y-121456336D01*
X102804936Y-121684592D01*
X102784340Y-121919999D01*
X102804936Y-122155407D01*
X102814193Y-122189953D01*
X102866097Y-122383663D01*
X102965965Y-122597830D01*
X103101505Y-122791401D01*
X103268599Y-122958495D01*
X103454160Y-123088426D01*
X103493024Y-123132743D01*
X103507035Y-123190000D01*
X103493024Y-123247257D01*
X103454159Y-123291575D01*
X103268595Y-123421508D01*
X103101505Y-123588598D01*
X102965965Y-123782170D01*
X102866097Y-123996336D01*
X102804936Y-124224592D01*
X102784340Y-124460000D01*
X102804936Y-124695407D01*
X102849709Y-124862501D01*
X102866097Y-124923663D01*
X102965965Y-125137830D01*
X103101505Y-125331401D01*
X103268599Y-125498495D01*
X103454160Y-125628426D01*
X103493024Y-125672743D01*
X103507035Y-125730000D01*
X103493024Y-125787257D01*
X103454159Y-125831575D01*
X103268595Y-125961508D01*
X103101505Y-126128598D01*
X102965965Y-126322170D01*
X102866097Y-126536336D01*
X102804936Y-126764592D01*
X102784340Y-126999999D01*
X88900500Y-126999999D01*
X88900500Y-121879999D01*
X97304815Y-121879999D01*
X97323525Y-122129670D01*
X97379240Y-122373771D01*
X97470710Y-122606833D01*
X97595897Y-122823664D01*
X97638817Y-122877484D01*
X97752003Y-123019414D01*
X97935540Y-123189712D01*
X98142408Y-123330752D01*
X98367987Y-123439385D01*
X98607236Y-123513184D01*
X98854813Y-123550500D01*
X99105187Y-123550500D01*
X99352764Y-123513184D01*
X99592013Y-123439385D01*
X99817592Y-123330752D01*
X100024460Y-123189712D01*
X100207997Y-123019414D01*
X100364102Y-122823665D01*
X100489289Y-122606835D01*
X100580760Y-122373769D01*
X100636474Y-122129673D01*
X100655184Y-121880000D01*
X100636474Y-121630327D01*
X100580760Y-121386231D01*
X100489289Y-121153165D01*
X100364102Y-120936335D01*
X100207997Y-120740586D01*
X100024460Y-120570288D01*
X100023304Y-120569500D01*
X99817592Y-120429248D01*
X99795255Y-120418491D01*
X99592013Y-120320615D01*
X99518213Y-120297850D01*
X99352763Y-120246815D01*
X99105187Y-120209500D01*
X98854813Y-120209500D01*
X98607236Y-120246815D01*
X98367987Y-120320615D01*
X98142407Y-120429248D01*
X97935540Y-120570287D01*
X97752003Y-120740585D01*
X97595897Y-120936335D01*
X97470710Y-121153166D01*
X97379240Y-121386228D01*
X97323525Y-121630329D01*
X97304815Y-121879999D01*
X88900500Y-121879999D01*
X88900500Y-119380000D01*
X92304815Y-119380000D01*
X92323525Y-119629670D01*
X92379240Y-119873771D01*
X92470710Y-120106833D01*
X92595897Y-120323664D01*
X92680098Y-120429248D01*
X92752003Y-120519414D01*
X92935540Y-120689712D01*
X93142408Y-120830752D01*
X93367987Y-120939385D01*
X93607236Y-121013184D01*
X93854813Y-121050500D01*
X94105187Y-121050500D01*
X94352764Y-121013184D01*
X94592013Y-120939385D01*
X94817592Y-120830752D01*
X95024460Y-120689712D01*
X95207997Y-120519414D01*
X95364102Y-120323665D01*
X95489289Y-120106835D01*
X95580760Y-119873769D01*
X95636474Y-119629673D01*
X95655184Y-119380000D01*
X95636474Y-119130327D01*
X95580760Y-118886231D01*
X95489289Y-118653165D01*
X95364102Y-118436335D01*
X95207997Y-118240586D01*
X95191359Y-118225148D01*
X97988402Y-118225148D01*
X98142660Y-118330318D01*
X98368167Y-118438917D01*
X98607348Y-118512695D01*
X98854851Y-118550000D01*
X99105149Y-118550000D01*
X99352651Y-118512695D01*
X99591832Y-118438917D01*
X99817337Y-118330320D01*
X99971596Y-118225148D01*
X98980000Y-117233553D01*
X97988402Y-118225148D01*
X95191359Y-118225148D01*
X95024460Y-118070288D01*
X94998726Y-118052743D01*
X94817592Y-117929248D01*
X94712198Y-117878493D01*
X94592013Y-117820615D01*
X94485867Y-117787873D01*
X94352763Y-117746815D01*
X94105187Y-117709500D01*
X93854813Y-117709500D01*
X93607236Y-117746815D01*
X93367987Y-117820615D01*
X93142407Y-117929248D01*
X92935540Y-118070287D01*
X92752003Y-118240585D01*
X92595897Y-118436335D01*
X92470710Y-118653166D01*
X92379240Y-118886228D01*
X92323525Y-119130329D01*
X92304815Y-119380000D01*
X88900500Y-119380000D01*
X88900500Y-116880000D01*
X97305316Y-116880000D01*
X97324021Y-117129597D01*
X97379718Y-117373621D01*
X97471163Y-117606618D01*
X97596310Y-117823380D01*
X97634800Y-117871645D01*
X98626447Y-116880001D01*
X99333553Y-116880001D01*
X100325198Y-117871646D01*
X100325199Y-117871645D01*
X100363688Y-117823382D01*
X100488836Y-117606618D01*
X100580281Y-117373621D01*
X100635978Y-117129597D01*
X100654683Y-116880000D01*
X100635978Y-116630402D01*
X100580281Y-116386378D01*
X100488836Y-116153381D01*
X100363689Y-115936619D01*
X100325198Y-115888353D01*
X99333553Y-116880000D01*
X99333553Y-116880001D01*
X98626447Y-116880001D01*
X98626447Y-116880000D01*
X97634800Y-115888353D01*
X97634799Y-115888353D01*
X97596313Y-115936615D01*
X97471163Y-116153381D01*
X97379718Y-116386378D01*
X97324021Y-116630402D01*
X97305316Y-116880000D01*
X88900500Y-116880000D01*
X88900500Y-115534849D01*
X97988402Y-115534849D01*
X98980000Y-116526447D01*
X98980001Y-116526447D01*
X99971596Y-115534850D01*
X99817340Y-115429681D01*
X99591832Y-115321082D01*
X99352651Y-115247304D01*
X99105149Y-115210000D01*
X98854851Y-115210000D01*
X98607348Y-115247304D01*
X98368167Y-115321083D01*
X98142660Y-115429680D01*
X97988402Y-115534849D01*
X88900500Y-115534849D01*
X88900500Y-106680000D01*
X97704340Y-106680000D01*
X97724936Y-106915407D01*
X97769709Y-107082502D01*
X97786097Y-107143663D01*
X97885965Y-107357830D01*
X98021505Y-107551401D01*
X98188599Y-107718495D01*
X98382170Y-107854035D01*
X98596337Y-107953903D01*
X98824592Y-108015063D01*
X99060000Y-108035659D01*
X99295408Y-108015063D01*
X99523663Y-107953903D01*
X99737830Y-107854035D01*
X99931401Y-107718495D01*
X100098495Y-107551401D01*
X100234035Y-107357830D01*
X100333903Y-107143663D01*
X100395063Y-106915408D01*
X100415659Y-106680000D01*
X100395063Y-106444592D01*
X100333903Y-106216337D01*
X100234035Y-106002171D01*
X100098495Y-105808599D01*
X99931401Y-105641505D01*
X99745839Y-105511573D01*
X99706975Y-105467257D01*
X99692964Y-105410000D01*
X99706975Y-105352743D01*
X99745839Y-105308426D01*
X99931401Y-105178495D01*
X100098495Y-105011401D01*
X100234035Y-104817830D01*
X100333903Y-104603663D01*
X100395063Y-104375408D01*
X100415659Y-104140000D01*
X100395063Y-103904592D01*
X100333903Y-103676337D01*
X100234035Y-103462171D01*
X100098495Y-103268599D01*
X99976181Y-103146285D01*
X99944885Y-103093539D01*
X99942696Y-103032246D01*
X99970149Y-102977401D01*
X100020528Y-102942422D01*
X100152089Y-102893352D01*
X100267188Y-102807188D01*
X100353352Y-102692089D01*
X100403597Y-102557375D01*
X100410000Y-102497824D01*
X100410000Y-101850000D01*
X97710000Y-101850000D01*
X97710000Y-102497824D01*
X97716402Y-102557375D01*
X97766647Y-102692089D01*
X97852811Y-102807188D01*
X97967911Y-102893352D01*
X98099471Y-102942422D01*
X98149850Y-102977401D01*
X98177303Y-103032246D01*
X98175114Y-103093539D01*
X98143819Y-103146285D01*
X98021503Y-103268601D01*
X97885965Y-103462170D01*
X97786097Y-103676336D01*
X97724936Y-103904592D01*
X97704340Y-104140000D01*
X97724936Y-104375407D01*
X97734193Y-104409953D01*
X97786097Y-104603663D01*
X97885965Y-104817830D01*
X98021505Y-105011401D01*
X98188599Y-105178495D01*
X98374160Y-105308426D01*
X98413024Y-105352743D01*
X98427035Y-105410000D01*
X98413024Y-105467257D01*
X98374159Y-105511575D01*
X98188595Y-105641508D01*
X98021505Y-105808598D01*
X97885965Y-106002170D01*
X97786097Y-106216336D01*
X97724936Y-106444592D01*
X97704340Y-106680000D01*
X88900500Y-106680000D01*
X88900500Y-101350000D01*
X97710000Y-101350000D01*
X98810000Y-101350000D01*
X98810000Y-100250000D01*
X99310000Y-100250000D01*
X99310000Y-101350000D01*
X100410000Y-101350000D01*
X100410000Y-100702176D01*
X100403597Y-100642624D01*
X100353352Y-100507910D01*
X100267188Y-100392811D01*
X100152089Y-100306647D01*
X100017375Y-100256402D01*
X99957824Y-100250000D01*
X99310000Y-100250000D01*
X98810000Y-100250000D01*
X98162176Y-100250000D01*
X98102624Y-100256402D01*
X97967910Y-100306647D01*
X97852811Y-100392811D01*
X97766647Y-100507910D01*
X97716402Y-100642624D01*
X97710000Y-100702176D01*
X97710000Y-101350000D01*
X88900500Y-101350000D01*
X88900500Y-78490000D01*
X102790000Y-78490000D01*
X103890000Y-78490000D01*
X103890000Y-77390000D01*
X104390000Y-77390000D01*
X104390000Y-78490000D01*
X105490000Y-78490000D01*
X105490000Y-77842176D01*
X105483597Y-77782624D01*
X105433352Y-77647910D01*
X105347188Y-77532811D01*
X105232089Y-77446647D01*
X105097375Y-77396402D01*
X105037824Y-77390000D01*
X104390000Y-77390000D01*
X103890000Y-77390000D01*
X103242176Y-77390000D01*
X103182624Y-77396402D01*
X103047910Y-77446647D01*
X102932811Y-77532811D01*
X102846647Y-77647910D01*
X102796402Y-77782624D01*
X102790000Y-77842176D01*
X102790000Y-78490000D01*
X88900500Y-78490000D01*
X88900500Y-73784500D01*
X88917113Y-73722500D01*
X88962500Y-73677113D01*
X89024500Y-73660500D01*
X164975500Y-73660500D01*
X165037500Y-73677113D01*
G37*
%TD.AperFunction*%
%TD*%
M02*
