%TF.GenerationSoftware,KiCad,Pcbnew,7.0.1*%
%TF.CreationDate,2023-05-21T14:40:44+02:00*%
%TF.ProjectId,converter,636f6e76-6572-4746-9572-2e6b69636164,rev?*%
%TF.SameCoordinates,Original*%
%TF.FileFunction,Soldermask,Bot*%
%TF.FilePolarity,Negative*%
%FSLAX46Y46*%
G04 Gerber Fmt 4.6, Leading zero omitted, Abs format (unit mm)*
G04 Created by KiCad (PCBNEW 7.0.1) date 2023-05-21 14:40:45*
%MOMM*%
%LPD*%
G01*
G04 APERTURE LIST*
%ADD10C,1.600000*%
%ADD11O,1.600000X1.600000*%
%ADD12R,1.700000X1.700000*%
%ADD13O,1.700000X1.700000*%
%ADD14R,1.800000X1.800000*%
%ADD15O,1.800000X1.800000*%
%ADD16C,2.340000*%
G04 APERTURE END LIST*
D10*
%TO.C,R4*%
X162230000Y-105410000D03*
D11*
X162230000Y-92710000D03*
%TD*%
D10*
%TO.C,R3*%
X157480000Y-105410000D03*
D11*
X157480000Y-92710000D03*
%TD*%
D12*
%TO.C,J5*%
X99060000Y-101600000D03*
D13*
X99060000Y-104140000D03*
X99060000Y-106680000D03*
%TD*%
D12*
%TO.C,J6*%
X132080000Y-83820000D03*
D13*
X132080000Y-86360000D03*
X132080000Y-88900000D03*
X132080000Y-91440000D03*
X132080000Y-93980000D03*
X132080000Y-96520000D03*
%TD*%
D12*
%TO.C,SW1*%
X139700000Y-93980000D03*
D13*
X137160000Y-93980000D03*
%TD*%
D12*
%TO.C,BT1*%
X157480000Y-83820000D03*
D13*
X157480000Y-81280000D03*
%TD*%
D10*
%TO.C,R2*%
X132080000Y-115570000D03*
D11*
X132080000Y-128270000D03*
%TD*%
D10*
%TO.C,C1*%
X147320000Y-96520000D03*
X147320000Y-91520000D03*
%TD*%
D12*
%TO.C,M2*%
X145415000Y-121920000D03*
D13*
X147955000Y-121920000D03*
%TD*%
D12*
%TO.C,U1*%
X137160000Y-86360000D03*
D13*
X137160000Y-83820000D03*
X137160000Y-81280000D03*
%TD*%
D12*
%TO.C,J1*%
X104140000Y-78740000D03*
D13*
X104140000Y-81280000D03*
X104140000Y-83820000D03*
X104140000Y-86360000D03*
X104140000Y-88900000D03*
X104140000Y-91440000D03*
X104140000Y-93980000D03*
X104140000Y-96520000D03*
X104140000Y-99060000D03*
X104140000Y-101600000D03*
X104140000Y-104140000D03*
X104140000Y-106680000D03*
X104140000Y-109220000D03*
X104140000Y-111760000D03*
X104140000Y-114300000D03*
X104140000Y-116840000D03*
X104140000Y-119380000D03*
X104140000Y-121920000D03*
X104140000Y-124460000D03*
X104140000Y-127000000D03*
%TD*%
D10*
%TO.C,C2*%
X147320000Y-81360000D03*
X147320000Y-86360000D03*
%TD*%
D14*
%TO.C,D1*%
X129540000Y-109220000D03*
D15*
X129540000Y-106680000D03*
%TD*%
D12*
%TO.C,J2*%
X124460000Y-78740000D03*
D13*
X124460000Y-81280000D03*
X124460000Y-83820000D03*
X124460000Y-86360000D03*
X124460000Y-88900000D03*
X124460000Y-91440000D03*
X124460000Y-93980000D03*
X124460000Y-96520000D03*
X124460000Y-99060000D03*
X124460000Y-101600000D03*
X124460000Y-104140000D03*
X124460000Y-106680000D03*
X124460000Y-109220000D03*
X124460000Y-111760000D03*
X124460000Y-114300000D03*
X124460000Y-116840000D03*
X124460000Y-119380000D03*
X124460000Y-121920000D03*
X124460000Y-124460000D03*
X124460000Y-127000000D03*
%TD*%
D10*
%TO.C,R1*%
X160020000Y-123190000D03*
D11*
X160020000Y-110490000D03*
%TD*%
D12*
%TO.C,J3*%
X135255000Y-104140000D03*
D13*
X137795000Y-104140000D03*
X140335000Y-104140000D03*
X142875000Y-104140000D03*
X145415000Y-104140000D03*
X147955000Y-104140000D03*
X150495000Y-104140000D03*
X153035000Y-104140000D03*
%TD*%
D16*
%TO.C,RV1*%
X98980000Y-121880000D03*
X93980000Y-119380000D03*
X98980000Y-116880000D03*
%TD*%
D12*
%TO.C,J4*%
X137795000Y-116840000D03*
D13*
X140335000Y-116840000D03*
X142875000Y-116840000D03*
X145415000Y-116840000D03*
X147955000Y-116840000D03*
X150495000Y-116840000D03*
%TD*%
D12*
%TO.C,M1*%
X137795000Y-121920000D03*
D13*
X140335000Y-121920000D03*
%TD*%
D14*
%TO.C,D2*%
X154940000Y-116840000D03*
D15*
X154940000Y-114300000D03*
%TD*%
M02*
